<svg width="50" height="50" viewBox="0 0 50 50" fill="none" xmlns="http://www.w3.org/2000/svg">
<rect width="50" height="50" fill="#1E1E1E"/>
<g clip-path="url(#clip0_0_1)">
<rect width="1440" height="1737" transform="translate(-624 -612)" fill="#2B2B2B"/>
<g filter="url(#filter0_d_0_1)">
<rect x="-524" y="-341" width="1240" height="614" rx="10" fill="#3B3B3B"/>
<path d="M18.6523 26.5625H22.0703L20.3125 22.6562L18.6523 26.5625ZM37.5 6.25H12.5C10.7422 6.31511 9.27734 6.93359 8.10547 8.10547C6.93359 9.27734 6.3151 10.7422 6.25 12.5V37.5C6.3151 39.2578 6.93359 40.7227 8.10547 41.8945C9.27734 43.0664 10.7422 43.6849 12.5 43.75H37.5C39.2578 43.6849 40.7227 43.0664 41.8945 41.8945C43.0664 40.7227 43.6849 39.2578 43.75 37.5V12.5C43.6849 10.7422 43.0664 9.27734 41.8945 8.10547C40.7227 6.93359 39.2578 6.31511 37.5 6.25ZM26.3672 32.7148C26.1719 32.7799 25.9766 32.8125 25.7812 32.8125C25.1302 32.8125 24.6419 32.487 24.3164 31.8359L23.4375 29.6875H17.2852L16.3086 31.8359C15.8529 32.6823 15.1693 32.9753 14.2578 32.7148C13.4115 32.2591 13.1185 31.5755 13.3789 30.6641L18.8477 18.1641C19.1732 17.5781 19.6615 17.2852 20.3125 17.2852C20.9635 17.2852 21.4518 17.5781 21.7773 18.1641L27.2461 30.6641C27.5065 31.5755 27.2135 32.2591 26.3672 32.7148ZM34.375 31.25C34.3099 32.2266 33.7891 32.7474 32.8125 32.8125C31.8359 32.7474 31.3151 32.2266 31.25 31.25V18.75C31.3151 17.7734 31.8359 17.2526 32.8125 17.1875C33.7891 17.2526 34.3099 17.7734 34.375 18.75V31.25Z" fill="#EE742B"/>
<g opacity="0.4">
<g clip-path="url(#clip1_0_1)">
<path d="M0 25C0.0651042 25.9766 0.585938 26.4974 1.5625 26.5625H6.25V23.4375H1.5625C0.585938 23.5026 0.0651042 24.0234 0 25ZM0 34.375C0.0651042 35.3516 0.585938 35.8724 1.5625 35.9375H6.25V32.8125H1.5625C0.585938 32.8776 0.0651042 33.3984 0 34.375ZM0 15.625C0.0651042 16.6016 0.585938 17.1224 1.5625 17.1875H6.25V14.0625H1.5625C0.585938 14.1276 0.0651042 14.6484 0 15.625ZM50 15.625C49.9349 14.6484 49.4141 14.1276 48.4375 14.0625H43.75V17.1875H48.4375C49.4141 17.1224 49.9349 16.6016 50 15.625ZM17.1875 1.5625C17.1224 0.585938 16.6016 0.0651054 15.625 0C14.6484 0.0651054 14.1276 0.585938 14.0625 1.5625V6.25H17.1875V1.5625ZM26.5625 1.5625C26.4974 0.585938 25.9766 0.0651054 25 0C24.0234 0.0651054 23.5026 0.585938 23.4375 1.5625V6.25H26.5625V1.5625ZM14.0625 48.4375C14.1276 49.4141 14.6484 49.9349 15.625 50C16.6016 49.9349 17.1224 49.4141 17.1875 48.4375V43.75H14.0625V48.4375ZM34.375 0C33.3984 0.0651054 32.8776 0.585938 32.8125 1.5625V6.25H35.9375V1.5625C35.8724 0.585938 35.3516 0.0651054 34.375 0ZM23.4375 48.4375C23.5026 49.4141 24.0234 49.9349 25 50C25.9766 49.9349 26.4974 49.4141 26.5625 48.4375V43.75H23.4375V48.4375ZM48.4375 23.4375H43.75V26.5625H48.4375C49.4141 26.4974 49.9349 25.9766 50 25C49.9349 24.0234 49.4141 23.5026 48.4375 23.4375ZM32.8125 48.4375C32.8776 49.4141 33.3984 49.9349 34.375 50C35.3516 49.9349 35.8724 49.4141 35.9375 48.4375V43.75H32.8125V48.4375ZM48.4375 32.8125H43.75V35.9375H48.4375C49.4141 35.8724 49.9349 35.3516 50 34.375C49.9349 33.3984 49.4141 32.8776 48.4375 32.8125Z" fill="#EE742B"/>
</g>
</g>
</g>
</g>
<defs>
<filter id="filter0_d_0_1" x="-527" y="-342" width="1246" height="620" filterUnits="userSpaceOnUse" color-interpolation-filters="sRGB">
<feFlood flood-opacity="0" result="BackgroundImageFix"/>
<feColorMatrix in="SourceAlpha" type="matrix" values="0 0 0 0 0 0 0 0 0 0 0 0 0 0 0 0 0 0 127 0" result="hardAlpha"/>
<feMorphology radius="1" operator="erode" in="SourceAlpha" result="effect1_dropShadow_0_1"/>
<feOffset dy="2"/>
<feGaussianBlur stdDeviation="2"/>
<feComposite in2="hardAlpha" operator="out"/>
<feColorMatrix type="matrix" values="0 0 0 0 0.0823529 0 0 0 0 0.0823529 0 0 0 0 0.113725 0 0 0 0.1 0"/>
<feBlend mode="normal" in2="BackgroundImageFix" result="effect1_dropShadow_0_1"/>
<feBlend mode="normal" in="SourceGraphic" in2="effect1_dropShadow_0_1" result="shape"/>
</filter>
<clipPath id="clip0_0_1">
<rect width="1440" height="1737" fill="white" transform="translate(-624 -612)"/>
</clipPath>
<clipPath id="clip1_0_1">
<rect width="50" height="50" fill="white" transform="matrix(1 0 0 -1 0 50)"/>
</clipPath>
</defs>
</svg>
