<svg width="50" height="50" viewBox="0 0 50 50" fill="none" xmlns="http://www.w3.org/2000/svg">
<rect width="50" height="50" fill="#1E1E1E"/>
<g id="Product page" clip-path="url(#clip0_0_1)">
<rect width="1440" height="1737" transform="translate(-624 -522)" fill="#2B2B2B"/>
<g id="Background+Shadow" filter="url(#filter0_d_0_1)">
<rect x="-524" y="-251" width="1240" height="614" rx="10" fill="#3B3B3B"/>
<g id="Container">
<g id="Container_2">
<g id="Container_3">
<g id="Container_4">
<g id="Margin">
<g id="Container_5">
<g id="Container_6">
<g id="Icon">
<path id="Vector" d="M43.75 3.125H6.25C4.49219 3.1901 3.02734 3.80859 1.85547 4.98047C0.683594 6.15234 0.0651042 7.61719 0 9.375V21.875H50V9.375C49.9349 7.61719 49.3164 6.15234 48.1445 4.98047C46.9727 3.80859 45.5078 3.1901 43.75 3.125ZM9.375 15.625C8.46354 15.625 7.71484 15.332 7.12891 14.7461C6.54297 14.1602 6.25 13.4115 6.25 12.5C6.25 11.5885 6.54297 10.8398 7.12891 10.2539C7.71484 9.66797 8.46354 9.375 9.375 9.375C10.2865 9.375 11.0352 9.66797 11.6211 10.2539C12.207 10.8398 12.5 11.5885 12.5 12.5C12.5 13.4115 12.207 14.1602 11.6211 14.7461C11.0352 15.332 10.2865 15.625 9.375 15.625ZM18.75 15.625C17.8385 15.625 17.0898 15.332 16.5039 14.7461C15.918 14.1602 15.625 13.4115 15.625 12.5C15.625 11.5885 15.918 10.8398 16.5039 10.2539C17.0898 9.66797 17.8385 9.375 18.75 9.375C19.6615 9.375 20.4102 9.66797 20.9961 10.2539C21.582 10.8398 21.875 11.5885 21.875 12.5C21.875 13.4115 21.582 14.1602 20.9961 14.7461C20.4102 15.332 19.6615 15.625 18.75 15.625ZM28.125 15.625C27.2135 15.625 26.4648 15.332 25.8789 14.7461C25.293 14.1602 25 13.4115 25 12.5C25 11.5885 25.293 10.8398 25.8789 10.2539C26.4648 9.66797 27.2135 9.375 28.125 9.375C29.0365 9.375 29.7852 9.66797 30.3711 10.2539C30.957 10.8398 31.25 11.5885 31.25 12.5C31.25 13.4115 30.957 14.1602 30.3711 14.7461C29.7852 15.332 29.0365 15.625 28.125 15.625Z" fill="#EE742B"/>
</g>
</g>
<g id="Container_7" opacity="0.4">
<g id="Icon_2">
<path id="Vector_2" d="M0 21.875V40.625C0.0651042 42.3828 0.683594 43.8477 1.85547 45.0195C3.02734 46.1914 4.49219 46.8099 6.25 46.875H43.75C45.5078 46.8099 46.9727 46.1914 48.1445 45.0195C49.3164 43.8477 49.9349 42.3828 50 40.625V21.875H0ZM18.75 15.625C19.6615 15.625 20.4102 15.332 20.9961 14.7461C21.582 14.1602 21.875 13.4115 21.875 12.5C21.875 11.5885 21.582 10.8398 20.9961 10.2539C20.4102 9.66797 19.6615 9.375 18.75 9.375C17.8385 9.375 17.0898 9.66797 16.5039 10.2539C15.918 10.8398 15.625 11.5885 15.625 12.5C15.625 13.4115 15.918 14.1602 16.5039 14.7461C17.0898 15.332 17.8385 15.625 18.75 15.625ZM28.125 15.625C29.0365 15.625 29.7852 15.332 30.3711 14.7461C30.957 14.1602 31.25 13.4115 31.25 12.5C31.25 11.5885 30.957 10.8398 30.3711 10.2539C29.7852 9.66797 29.0365 9.375 28.125 9.375C27.2135 9.375 26.4648 9.66797 25.8789 10.2539C25.293 10.8398 25 11.5885 25 12.5C25 13.4115 25.293 14.1602 25.8789 14.7461C26.4648 15.332 27.2135 15.625 28.125 15.625Z" fill="#EE742B"/>
</g>
</g>
</g>
</g>
</g>
</g>
</g>
</g>
</g>
</g>
<defs>
<filter id="filter0_d_0_1" x="-527" y="-252" width="1246" height="620" filterUnits="userSpaceOnUse" color-interpolation-filters="sRGB">
<feFlood flood-opacity="0" result="BackgroundImageFix"/>
<feColorMatrix in="SourceAlpha" type="matrix" values="0 0 0 0 0 0 0 0 0 0 0 0 0 0 0 0 0 0 127 0" result="hardAlpha"/>
<feMorphology radius="1" operator="erode" in="SourceAlpha" result="effect1_dropShadow_0_1"/>
<feOffset dy="2"/>
<feGaussianBlur stdDeviation="2"/>
<feComposite in2="hardAlpha" operator="out"/>
<feColorMatrix type="matrix" values="0 0 0 0 0.0823529 0 0 0 0 0.0823529 0 0 0 0 0.113725 0 0 0 0.1 0"/>
<feBlend mode="normal" in2="BackgroundImageFix" result="effect1_dropShadow_0_1"/>
<feBlend mode="normal" in="SourceGraphic" in2="effect1_dropShadow_0_1" result="shape"/>
</filter>
<clipPath id="clip0_0_1">
<rect width="1440" height="1737" fill="white" transform="translate(-624 -522)"/>
</clipPath>
</defs>
</svg>
