<svg width="60" height="50" viewBox="0 0 60 50" fill="none" xmlns="http://www.w3.org/2000/svg">
<path d="M37.5 6.25H12.5C10.7422 6.31511 9.27734 6.93359 8.10547 8.10547C6.93359 9.27734 6.3151 10.7422 6.25 12.5V37.5C6.3151 39.2578 6.93359 40.7227 8.10547 41.8945C9.27734 43.0664 10.7422 43.6849 12.5 43.75H37.5C39.2578 43.6849 40.7227 43.0664 41.8945 41.8945C43.0664 40.7227 43.6849 39.2578 43.75 37.5V12.5C43.6849 10.7422 43.0664 9.27734 41.8945 8.10547C40.7227 6.93359 39.2578 6.31511 37.5 6.25ZM37.5 35.9375C37.4349 36.9141 36.9141 37.4349 35.9375 37.5H14.0625C13.0859 37.4349 12.5651 36.9141 12.5 35.9375V14.0625C12.5651 13.0859 13.0859 12.5651 14.0625 12.5H35.9375C36.9141 12.5651 37.4349 13.0859 37.5 14.0625V35.9375Z" fill="#EE742B"/>
<g opacity="0.4">
<g clip-path="url(#clip0_72_3527)">
<path d="M0 15.625C0.0651042 16.6016 0.585938 17.1224 1.5625 17.1875H6.25V14.0625H1.5625C0.585938 14.1276 0.0651042 14.6484 0 15.625ZM0 25C0.0651042 25.9766 0.585938 26.4974 1.5625 26.5625H6.25V23.4375H1.5625C0.585938 23.5026 0.0651042 24.0234 0 25ZM17.1875 1.5625C17.1224 0.585938 16.6016 0.0651054 15.625 0C14.6484 0.0651054 14.1276 0.585938 14.0625 1.5625V6.25H17.1875V1.5625ZM0 34.375C0.0651042 35.3516 0.585938 35.8724 1.5625 35.9375H6.25V32.8125H1.5625C0.585938 32.8776 0.0651042 33.3984 0 34.375ZM26.5625 1.5625C26.4974 0.585938 25.9766 0.0651054 25 0C24.0234 0.0651054 23.5026 0.585938 23.4375 1.5625V6.25H26.5625V1.5625ZM50 15.625C49.9349 14.6484 49.4141 14.1276 48.4375 14.0625H43.75V17.1875H48.4375C49.4141 17.1224 49.9349 16.6016 50 15.625ZM48.4375 32.8125H43.75V35.9375H48.4375C49.4141 35.8724 49.9349 35.3516 50 34.375C49.9349 33.3984 49.4141 32.8776 48.4375 32.8125ZM34.375 0C33.3984 0.0651054 32.8776 0.585938 32.8125 1.5625V6.25H35.9375V1.5625C35.8724 0.585938 35.3516 0.0651054 34.375 0ZM48.4375 23.4375H43.75V26.5625H48.4375C49.4141 26.4974 49.9349 25.9766 50 25C49.9349 24.0234 49.4141 23.5026 48.4375 23.4375ZM14.0625 48.4375C14.1276 49.4141 14.6484 49.9349 15.625 50C16.6016 49.9349 17.1224 49.4141 17.1875 48.4375V43.75H14.0625V48.4375ZM32.8125 48.4375C32.8776 49.4141 33.3984 49.9349 34.375 50C35.3516 49.9349 35.8724 49.4141 35.9375 48.4375V43.75H32.8125V48.4375ZM23.4375 48.4375C23.5026 49.4141 24.0234 49.9349 25 50C25.9766 49.9349 26.4974 49.4141 26.5625 48.4375V43.75H23.4375V48.4375ZM15.625 34.375H34.375V15.625H15.625V34.375Z" fill="#EE742B"/>
</g>
</g>
<defs>
<clipPath id="clip0_72_3527">
<rect width="50" height="50" fill="white" transform="matrix(1 0 0 -1 0 50)"/>
</clipPath>
</defs>
</svg>
