<svg width="60" height="40" viewBox="0 0 60 40" fill="none" xmlns="http://www.w3.org/2000/svg">
<path d="M0 12.5V27.5C0.0520833 28.9062 0.546875 30.0781 1.48438 31.0156C2.42188 31.9531 3.59375 32.4479 5 32.5H37.5V7.5H5C3.59375 7.55208 2.42188 8.04688 1.48438 8.98438C0.546875 9.92188 0.0520833 11.0938 0 12.5Z" fill="#EE742B"/>
<g opacity="0.4">
<path d="M47.5 10H37.5V30H47.5C48.2292 30 48.8281 29.7656 49.2969 29.2969C49.7656 28.8281 50 28.2292 50 27.5V12.5C50 11.7708 49.7656 11.1719 49.2969 10.7031C48.8281 10.2344 48.2292 10 47.5 10ZM45.625 24.375C45.5729 25.1562 45.1562 25.5729 44.375 25.625H43.125C42.3438 25.5729 41.9271 25.1562 41.875 24.375V23.125C41.9271 22.3438 42.3438 21.9271 43.125 21.875H44.375C45.1562 21.9271 45.5729 22.3438 45.625 23.125V24.375ZM45.625 16.875C45.5729 17.6562 45.1562 18.0729 44.375 18.125H43.125C42.3438 18.0729 41.9271 17.6562 41.875 16.875V15.625C41.9271 14.8438 42.3438 14.4271 43.125 14.375H44.375C45.1562 14.4271 45.5729 14.8438 45.625 15.625V16.875Z" fill="#EE742B"/>
</g>
</svg>
