<svg width="24" height="25" viewBox="0 0 24 25" fill="none" xmlns="http://www.w3.org/2000/svg">
<g id="Burger Menu ">
<path id="Vector (Stroke)" fill-rule="evenodd" clip-rule="evenodd" d="M3 12.5C3 12.0858 3.33579 11.75 3.75 11.75H20.25C20.6642 11.75 21 12.0858 21 12.5C21 12.9142 20.6642 13.25 20.25 13.25H3.75C3.33579 13.25 3 12.9142 3 12.5Z" fill="white"/>
<path id="Vector (Stroke)_2" fill-rule="evenodd" clip-rule="evenodd" d="M3 6.5C3 6.08579 3.33579 5.75 3.75 5.75H15C15.4142 5.75 15.75 6.08579 15.75 6.5C15.75 6.91421 15.4142 7.25 15 7.25H3.75C3.33579 7.25 3 6.91421 3 6.5Z" fill="white"/>
<path id="Vector (Stroke)_3" fill-rule="evenodd" clip-rule="evenodd" d="M3 18.5C3 18.0858 3.33579 17.75 3.75 17.75H15C15.4142 17.75 15.75 18.0858 15.75 18.5C15.75 18.9142 15.4142 19.25 15 19.25H3.75C3.33579 19.25 3 18.9142 3 18.5Z" fill="white"/>
</g>
</svg>
