<svg xmlns="http://www.w3.org/2000/svg" xmlns:xlink="http://www.w3.org/1999/xlink" viewBox="0,0,256,256" width="64px" height="64px" fill-rule="nonzero"><defs><radialGradient cx="32" cy="31.5" r="31.259" gradientUnits="userSpaceOnUse" id="color-1"><stop offset="0" stop-color="#e9ce8e"></stop><stop offset="0" stop-color="#e9ce8e"></stop><stop offset="0.241" stop-color="#f1dca9"></stop><stop offset="0.521" stop-color="#f9e8c0"></stop><stop offset="0.782" stop-color="#fdefcf"></stop><stop offset="1" stop-color="#fff2d4"></stop></radialGradient><linearGradient x1="32" y1="8.925" x2="32" y2="52.925" gradientUnits="userSpaceOnUse" id="color-2"><stop offset="0" stop-color="#42d778"></stop><stop offset="0.428" stop-color="#3dca76"></stop><stop offset="1" stop-color="#34b171"></stop></linearGradient><linearGradient x1="21" y1="3.961" x2="21" y2="49.717" gradientUnits="userSpaceOnUse" id="color-3"><stop offset="0" stop-color="#62de8f"></stop><stop offset="0.478" stop-color="#5dd18d"></stop><stop offset="1" stop-color="#56be89"></stop></linearGradient><linearGradient x1="43.5" y1="50.833" x2="43.5" y2="18" gradientUnits="userSpaceOnUse" id="color-4"><stop offset="0" stop-color="#37ab6a"></stop><stop offset="0.422" stop-color="#39b66f"></stop><stop offset="1" stop-color="#3ac074"></stop></linearGradient></defs><g transform="translate(-88.32,-88.32) scale(1.69,1.69)"><g fill="none" fill-rule="nonzero" stroke="none" stroke-width="1" stroke-linecap="butt" stroke-linejoin="miter" stroke-miterlimit="10" stroke-dasharray="" stroke-dashoffset="0" font-family="none" font-weight="none" font-size="none" text-anchor="none" style="mix-blend-mode: normal"><g transform="scale(4,4)"><path d="M58,54c-1.105,0 -2,-0.895 -2,-2c0,-1.105 0.895,-2 2,-2h2.5c1.925,0 3.5,-1.575 3.5,-3.5c0,-1.925 -1.575,-3.5 -3.5,-3.5h-10.5c-1.381,0 -2.5,-1.119 -2.5,-2.5c0,-1.381 1.119,-2.5 2.5,-2.5h8c1.65,0 3,-1.35 3,-3c0,-1.65 -1.35,-3 -3,-3h-16v-6h18c2.335,0 4.22,-2.028 3.979,-4.41c-0.209,-2.076 -2.082,-3.59 -4.168,-3.59h-1.811c-1.105,0 -2,-0.895 -2,-2c0,-1.105 0.895,-2 2,-2h0.357c1.308,0 2.499,-0.941 2.63,-2.242c0.15,-1.497 -1.021,-2.758 -2.487,-2.758h-14c-0.828,0 -1.5,-0.672 -1.5,-1.5c0,-0.828 0.672,-1.5 1.5,-1.5h3.857c1.308,0 2.499,-0.941 2.63,-2.242c0.15,-1.497 -1.021,-2.758 -2.487,-2.758h-32.857c-1.308,0 -2.499,0.941 -2.63,2.242c-0.15,1.497 1.021,2.758 2.487,2.758h3.5c1.105,0 2,0.895 2,2c0,1.105 -0.895,2 -2,2h-12.811c-2.086,0 -3.958,1.514 -4.168,3.59c-0.241,2.382 1.644,4.41 3.979,4.41h2.5c1.933,0 3.5,1.567 3.5,3.5c0,1.933 -1.567,3.5 -3.5,3.5h-3.311c-2.086,0 -3.958,1.514 -4.168,3.59c-0.241,2.382 1.644,4.41 3.979,4.41h17v11h-16c-1.65,0 -3,1.35 -3,3c0,1.65 1.35,3 3,3v0c1.105,0 2,0.895 2,2c0,1.105 -0.895,2 -2,2h-1.811c-2.086,0 -3.958,1.514 -4.168,3.59c-0.241,2.382 1.644,4.41 3.979,4.41h53.811c2.086,0 3.958,-1.514 4.168,-3.59c0.241,-2.382 -1.644,-4.41 -3.979,-4.41z" fill="url(#color-1)"></path><path d="M50,12h-36c-2.209,0 -4,1.791 -4,4v36c0,2.209 1.791,4 4,4h36c2.209,0 4,-1.791 4,-4v-36c0,-2.209 -1.791,-4 -4,-4z" fill="url(#color-2)"></path><path d="M32,14.5v0c0,-1.381 -1.119,-2.5 -2.5,-2.5h-15.5c-2.209,0 -4,1.791 -4,4v25h10c1.657,0 3,-1.343 3,-3v0c0,-1.657 -1.343,-3 -3,-3h-1c-1.657,0 -3,-1.343 -3,-3v0c0,-1.657 1.343,-3 3,-3h4c1.657,0 3,-1.343 3,-3v0c0,-1.657 -1.343,-3 -3,-3h-3c-1.657,0 -3,-1.343 -3,-3v0c0,-1.657 1.343,-3 3,-3h9.5c1.381,0 2.5,-1.119 2.5,-2.5z" fill="url(#color-3)"></path><path d="M54,52v-13c-3.083,0 -10.118,0 -11.872,0c-1.451,0 -2.786,0.972 -3.068,2.395c-0.379,1.912 1.092,3.605 2.94,3.605h0.5c1.381,0 2.5,1.119 2.5,2.5c0,1.381 -1.119,2.5 -2.5,2.5h-6.369c-1.451,0 -2.789,0.972 -3.071,2.395c-0.379,1.912 1.092,3.605 2.94,3.605h14c2.209,0 4,-1.791 4,-4z" fill="url(#color-4)"></path><path d="M43.379,24.621l-14.379,14.374l-6.379,-6.377c-0.828,-0.828 -2.17,-0.828 -2.998,0l-0.002,0.002c-0.828,0.828 -0.828,2.169 0,2.997l7.684,7.681c0.936,0.936 2.454,0.936 3.391,0l15.683,-15.678c0.828,-0.828 0.828,-2.169 0,-2.997l-0.002,-0.002c-0.828,-0.828 -2.17,-0.828 -2.998,0z" fill="#f1fcff"></path></g></g></g></svg>