<svg width="21" height="20" viewBox="0 0 21 20" fill="none" xmlns="http://www.w3.org/2000/svg">
<path fill-rule="evenodd" clip-rule="evenodd" d="M10.5 3.125C8.08375 3.125 6.125 5.08375 6.125 7.5C6.125 9.91625 8.08375 11.875 10.5 11.875C12.9162 11.875 14.875 9.91625 14.875 7.5C14.875 5.08375 12.9162 3.125 10.5 3.125ZM4.875 7.5C4.875 4.3934 7.3934 1.875 10.5 1.875C13.6066 1.875 16.125 4.3934 16.125 7.5C16.125 10.6066 13.6066 13.125 10.5 13.125C7.3934 13.125 4.875 10.6066 4.875 7.5Z" fill="#BDBDBD"/>
<path fill-rule="evenodd" clip-rule="evenodd" d="M10.5 13.1245C9.07364 13.1245 7.67241 13.5 6.43717 14.2132C5.20194 14.9265 4.17623 15.9523 3.46317 17.1877C3.29061 17.4866 2.90837 17.5891 2.60942 17.4165C2.31047 17.2439 2.20802 16.8617 2.38058 16.5628C3.20335 15.1374 4.38686 13.9537 5.81212 13.1307C7.23739 12.3078 8.8542 11.8745 10.5 11.8745C12.1458 11.8745 13.7626 12.3078 15.1879 13.1307C16.6131 13.9537 17.7966 15.1374 18.6194 16.5628C18.792 16.8617 18.6895 17.2439 18.3906 17.4165C18.0916 17.5891 17.7094 17.4866 17.5368 17.1877C16.8238 15.9523 15.7981 14.9265 14.5628 14.2132C13.3276 13.5 11.9264 13.1245 10.5 13.1245Z" fill="#BDBDBD"/>
</svg>
