<svg width="17" height="17" viewBox="0 0 17 17" fill="none" xmlns="http://www.w3.org/2000/svg">
<g id="cross">
<path id="Vector" d="M0.470429 0.470417C-0.15681 1.09766 -0.15681 2.11459 0.470429 2.74183L6.22859 8.49996L0.470429 14.2582C-0.15681 14.8854 -0.15681 15.9024 0.470429 16.5296C1.09765 17.1568 2.1146 17.1568 2.74182 16.5296L8.49997 10.7713L14.2582 16.5296C14.8854 17.1568 15.9024 17.1568 16.5296 16.5296C17.1568 15.9024 17.1568 14.8854 16.5296 14.2582L10.7713 8.49996L16.5296 2.74184C17.1568 2.11462 17.1568 1.09767 16.5296 0.470449C15.9023 -0.156789 14.8854 -0.156789 14.2582 0.470449L8.49997 6.22859L2.74182 0.470417C2.1146 -0.156806 1.09765 -0.156806 0.470429 0.470417Z" fill="white"/>
</g>
</svg>
