<svg width="16" height="16" viewBox="0 0 16 16" fill="none" xmlns="http://www.w3.org/2000/svg">
<g id="Icon" clip-path="url(#clip0_47_6091)">
<path id="Vector" d="M4.62041 11.9022L7.17239 8.10253L4.62041 4.30291V11.9022ZM5.72627 13.5468H10.8019L8.2499 9.74714L5.72627 13.5468ZM9.35576 8.10253L11.8794 11.9022V4.30291L9.35576 8.10253ZM10.8019 2.6583H5.72627L8.2499 6.45792L10.8019 2.6583ZM2.80566 2.20461C2.82457 1.82654 2.95689 1.50518 3.20264 1.24053C3.46729 0.994781 3.78865 0.862456 4.16672 0.843553H12.3331C12.7111 0.862456 13.0325 0.994781 13.2972 1.24053C13.5429 1.50518 13.6752 1.82654 13.6941 2.20461V14.0005C13.6752 14.3785 13.5429 14.6999 13.2972 14.9645C13.0325 15.2103 12.7111 15.3426 12.3331 15.3615H4.16672C3.78865 15.3426 3.46729 15.2103 3.20264 14.9645C2.95689 14.6999 2.82457 14.3785 2.80566 14.0005V2.20461Z" fill="#49B977"/>
</g>
<defs>
<clipPath id="clip0_47_6091">
<rect width="15" height="15" fill="white" transform="matrix(1 0 0 -1 0.75 15.56)"/>
</clipPath>
</defs>
</svg>
