<svg width="80" height="11" viewBox="0 0 80 11" fill="none" xmlns="http://www.w3.org/2000/svg">
<path d="M6.0587 0.123249V1.01681H1.12198V5.03781H5.28934V5.93137H1.12198V10.8922H0V0.123249H6.0587Z" fill="#FA5745"/>
<path d="M13.8671 10.8922L11.0942 6.39356H9.02656V10.8922H7.90458V0.123249H11.2705C12.5207 0.123249 13.4664 0.410831 14.1075 0.985994C14.7594 1.56116 15.0853 2.31606 15.0853 3.2507C15.0853 4.03128 14.8502 4.69888 14.38 5.2535C13.9205 5.79785 13.2367 6.15219 12.3284 6.31653L15.2135 10.8922H13.8671ZM9.02656 5.51541H11.2866C12.1628 5.51541 12.8199 5.30999 13.258 4.89916C13.7068 4.48833 13.9312 3.93884 13.9312 3.2507C13.9312 2.54202 13.7175 1.99767 13.2901 1.61765C12.8627 1.22736 12.1895 1.03221 11.2705 1.03221H9.02656V5.51541Z" fill="#FA5745"/>
<path d="M18.4338 1.0014V5.02241H22.6813V5.91597H18.4338V9.9986H23.1621V10.8922H17.3118V0.107843H23.1621V1.0014H18.4338Z" fill="#FA5745"/>
<path d="M26.4949 1.0014V5.02241H30.7424V5.91597H26.4949V9.9986H31.2233V10.8922H25.3729V0.107843H31.2233V1.0014H26.4949Z" fill="#FA5745"/>
<path d="M39.4126 10.8922L34.556 5.91597V10.8922H33.434V0.123249H34.556V5.16106L39.4126 0.123249H40.8391L35.5979 5.5L40.8872 10.8922H39.4126Z" fill="white"/>
<path d="M49.0353 8.33473H43.9383L42.9606 10.8922H41.7745L45.8617 0.261904H47.128L51.1991 10.8922H50.0131L49.0353 8.33473ZM48.6987 7.44118L46.4868 1.61765L44.2749 7.44118H48.6987Z" fill="white"/>
<path d="M56.3978 11C55.6605 11 55.0087 10.8767 54.4424 10.6303C53.8867 10.3838 53.4486 10.0397 53.1281 9.59804C52.8075 9.1564 52.6365 8.6634 52.6151 8.11905H53.8012C53.8547 8.64286 54.0951 9.10504 54.5225 9.5056C54.9499 9.89589 55.575 10.091 56.3978 10.091C57.1565 10.091 57.7549 9.90616 58.193 9.53641C58.6418 9.1564 58.8662 8.6788 58.8662 8.10364C58.8662 7.64146 58.7433 7.27171 58.4975 6.9944C58.2518 6.70682 57.9472 6.49626 57.5839 6.36274C57.2206 6.21895 56.7184 6.06489 56.0773 5.90056C55.3293 5.70542 54.7362 5.51541 54.2981 5.33053C53.86 5.14566 53.486 4.85808 53.1761 4.46779C52.8663 4.0775 52.7113 3.54855 52.7113 2.88095C52.7113 2.32633 52.8609 1.83333 53.1601 1.40196C53.4593 0.960317 53.8814 0.616246 54.4263 0.369748C54.9713 0.123249 55.5964 0 56.3017 0C57.3382 0 58.1716 0.246498 58.8021 0.739495C59.4432 1.22222 59.8119 1.84874 59.908 2.61905H58.6899C58.6151 2.1774 58.364 1.78711 57.9365 1.44818C57.5091 1.09897 56.9321 0.92437 56.2055 0.92437C55.5323 0.92437 54.9713 1.09897 54.5225 1.44818C54.0737 1.78711 53.8493 2.25443 53.8493 2.85014C53.8493 3.30205 53.9722 3.66667 54.218 3.94398C54.4637 4.22129 54.7683 4.43184 55.1316 4.57563C55.5056 4.71942 56.0078 4.87348 56.6382 5.03781C57.3649 5.23296 57.9526 5.4281 58.4014 5.62325C58.8502 5.80812 59.2295 6.0957 59.5394 6.48599C59.8493 6.87628 60.0042 7.40009 60.0042 8.05742C60.0042 8.56069 59.8653 9.03828 59.5875 9.4902C59.3096 9.94211 58.8982 10.3067 58.3533 10.584C57.8083 10.8613 57.1565 11 56.3978 11Z" fill="white"/>
<path d="M65.5703 11C64.833 11 64.1812 10.8767 63.6148 10.6303C63.0592 10.3838 62.6211 10.0397 62.3005 9.59804C61.9799 9.1564 61.809 8.6634 61.7876 8.11905H62.9737C63.0271 8.64286 63.2675 9.10504 63.695 9.5056C64.1224 9.89589 64.7475 10.091 65.5703 10.091C66.3289 10.091 66.9273 9.90616 67.3654 9.53641C67.8142 9.1564 68.0386 8.6788 68.0386 8.10364C68.0386 7.64146 67.9157 7.27171 67.67 6.9944C67.4242 6.70682 67.1197 6.49626 66.7564 6.36274C66.3931 6.21895 65.8908 6.06489 65.2497 5.90056C64.5017 5.70542 63.9087 5.51541 63.4706 5.33053C63.0325 5.14566 62.6585 4.85808 62.3486 4.46779C62.0387 4.0775 61.8838 3.54855 61.8838 2.88095C61.8838 2.32633 62.0334 1.83333 62.3326 1.40196C62.6317 0.960317 63.0538 0.616246 63.5988 0.369748C64.1438 0.123249 64.7689 0 65.4741 0C66.5106 0 67.3441 0.246498 67.9745 0.739495C68.6156 1.22222 68.9843 1.84874 69.0805 2.61905H67.8623C67.7875 2.1774 67.5364 1.78711 67.109 1.44818C66.6816 1.09897 66.1045 0.92437 65.3779 0.92437C64.7047 0.92437 64.1438 1.09897 63.695 1.44818C63.2462 1.78711 63.0218 2.25443 63.0218 2.85014C63.0218 3.30205 63.1447 3.66667 63.3904 3.94398C63.6362 4.22129 63.9407 4.43184 64.304 4.57563C64.678 4.71942 65.1803 4.87348 65.8107 5.03781C66.5373 5.23296 67.125 5.4281 67.5738 5.62325C68.0226 5.80812 68.4019 6.0957 68.7118 6.48599C69.0217 6.87628 69.1766 7.40009 69.1766 8.05742C69.1766 8.56069 69.0377 9.03828 68.7599 9.4902C68.4821 9.94211 68.0707 10.3067 67.5257 10.584C66.9808 10.8613 66.3289 11 65.5703 11Z" fill="white"/>
<path d="M77.8362 8.33473H72.7392L71.7615 10.8922H70.5754L74.6626 0.261904H75.9288L80 10.8922H78.8139L77.8362 8.33473ZM77.4996 7.44118L75.2877 1.61765L73.0758 7.44118H77.4996Z" fill="white"/>
</svg>
