<svg width="50" height="40" viewBox="0 0 50 40" fill="none" xmlns="http://www.w3.org/2000/svg">
<g id="Icon" clip-path="url(#clip0_72_3517)">
<path id="Vector" d="M49.9217 28.75L47.2654 12.2656C46.9008 10.2344 46.0154 8.51562 44.6092 7.10938C43.2029 5.65104 41.4842 4.6875 39.4529 4.21875C37.3696 3.69792 34.9737 3.28125 32.2654 2.96875C29.5571 2.65625 27.1352 2.5 24.9998 2.5C22.8644 2.5 20.4425 2.65625 17.7342 2.96875C15.0258 3.28125 12.656 3.67188 10.6248 4.14062C8.54146 4.66146 6.79667 5.65104 5.39042 7.10938C3.98417 8.51562 3.09875 10.2344 2.73417 12.2656L0.0779157 28.75C-0.234584 31.1458 0.364374 33.1771 1.87479 34.8438C3.38521 36.5104 5.41646 37.3958 7.96854 37.5C9.89562 37.5 11.6404 36.9531 13.2029 35.8594C14.7133 34.8177 15.8071 33.4115 16.4842 31.6406L17.1092 30H32.9685L33.5154 31.6406C34.1925 33.4115 35.2862 34.8177 36.7967 35.8594C38.3592 36.9531 40.13 37.5 42.1092 37.5C44.6092 37.3958 46.6144 36.5104 48.1248 34.8438C49.6352 33.125 50.2342 31.0938 49.9217 28.75ZM19.2967 19.375L16.7967 19.2969V21.875C16.6925 23.0208 16.0675 23.6458 14.9217 23.75C13.7758 23.6458 13.1508 23.0208 13.0467 21.875V19.375H10.5467C10.0779 19.375 9.63521 19.1927 9.21854 18.8281C8.85396 18.4635 8.67167 18.0208 8.67167 17.5C8.77583 16.3542 9.40083 15.7292 10.5467 15.625H13.0467V13.125C13.1508 11.9792 13.7758 11.3542 14.9217 11.25C16.0675 11.3542 16.6925 11.9792 16.7967 13.125V15.625H19.2967C20.4425 15.7292 21.0675 16.3542 21.1717 17.5C21.1196 18.6458 20.4946 19.2708 19.2967 19.375ZM33.7498 24.2969C32.8644 24.2969 32.1352 23.9844 31.5623 23.3594C30.9373 22.7865 30.6248 22.0573 30.6248 21.1719C30.6248 20.2865 30.9373 19.5573 31.5623 18.9844C32.1352 18.4115 32.8644 18.099 33.7498 18.0469C34.6352 18.099 35.3644 18.4115 35.9373 18.9844C36.5623 19.5573 36.8748 20.2865 36.8748 21.1719C36.8748 22.1094 36.5623 22.8646 35.9373 23.4375C35.3644 24.0104 34.6352 24.2969 33.7498 24.2969ZM38.7498 16.7969C37.8644 16.7969 37.1352 16.4844 36.5623 15.8594C35.9373 15.2865 35.6248 14.5573 35.6248 13.6719C35.6248 12.7865 35.9373 12.0573 36.5623 11.4844C37.1352 10.9115 37.8644 10.599 38.7498 10.5469C39.6352 10.599 40.3644 10.9115 40.9373 11.4844C41.5623 12.0573 41.8748 12.7865 41.8748 13.6719C41.8748 14.6094 41.5623 15.3646 40.9373 15.9375C40.3644 16.5104 39.6352 16.7969 38.7498 16.7969Z" fill="#EE742B"/>
</g>
<defs>
<clipPath id="clip0_72_3517">
<rect width="50" height="40" fill="white" transform="matrix(1 0 0 -1 0 40)"/>
</clipPath>
</defs>
</svg>
