<svg width="50" height="40" viewBox="0 0 50 40" fill="none" xmlns="http://www.w3.org/2000/svg">
<g clip-path="url(#clip0_72_3561)">
<path d="M40 0H12.5C11.0938 0.0520821 9.92188 0.546875 8.98438 1.48438C8.04688 2.42188 7.55208 3.59375 7.5 5V15H45V5C44.9479 3.59375 44.4531 2.42188 43.5156 1.48438C42.5781 0.546875 41.4062 0.0520821 40 0ZM17.5 9.0625C17.4479 9.63542 17.1354 9.94792 16.5625 10H13.4375C12.8646 9.94792 12.5521 9.63542 12.5 9.0625V5.9375C12.5521 5.36458 12.8646 5.05208 13.4375 5H16.5625C17.1354 5.05208 17.4479 5.36458 17.5 5.9375V9.0625ZM40 9.0625C39.9479 9.63542 39.6354 9.94792 39.0625 10H20.9375C20.3646 9.94792 20.0521 9.63542 20 9.0625V5.9375C20.0521 5.36458 20.3646 5.05208 20.9375 5H39.0625C39.6354 5.05208 39.9479 5.36458 40 5.9375V9.0625ZM3.75 33.75V7.5C2.70833 7.55208 1.82292 7.91667 1.09375 8.59375C0.416667 9.32292 0.0520833 10.2083 0 11.25V35C0.0520833 36.4062 0.546875 37.5781 1.48438 38.5156C2.42188 39.4531 3.59375 39.9479 5 40H33.75C34.7917 39.9479 35.6771 39.5833 36.4062 38.9062C37.0833 38.1771 37.4479 37.2917 37.5 36.25H6.25C5.52083 36.25 4.92188 36.0156 4.45312 35.5469C3.98438 35.0781 3.75 34.4792 3.75 33.75Z" fill="#EE742B"/>
</g>
<g opacity="0.4">
<path d="M7.5 15V27.5C7.55208 28.9062 8.04688 30.0781 8.98438 31.0156C9.92188 31.9531 11.0938 32.4479 12.5 32.5H40C41.4062 32.4479 42.5781 31.9531 43.5156 31.0156C44.4531 30.0781 44.9479 28.9062 45 27.5V15H7.5ZM13.4375 10H16.5625C17.1354 9.94792 17.4479 9.63542 17.5 9.0625V5.9375C17.4479 5.36458 17.1354 5.05208 16.5625 5H13.4375C12.8646 5.05208 12.5521 5.36458 12.5 5.9375V9.0625C12.5521 9.63542 12.8646 9.94792 13.4375 10Z" fill="#EE742B"/>
</g>
<defs>
<clipPath id="clip0_72_3561">
<rect width="45" height="40" fill="white" transform="matrix(1 0 0 -1 0 40)"/>
</clipPath>
</defs>
</svg>
