<svg width="40" height="16" viewBox="0 0 40 16" fill="none" xmlns="http://www.w3.org/2000/svg">
<path id="XMLID_34_" d="M7.30875 2.0628C6.83995 2.60324 6.08987 3.0295 5.33978 2.9686C5.24602 2.23787 5.61325 1.46147 6.04298 0.981922C6.51179 0.426261 7.33219 0.0304472 7.99633 0C8.07447 0.76118 7.76974 1.50714 7.30875 2.0628ZM7.98852 3.11323C6.90246 3.05233 5.97266 3.71456 5.45698 3.71456C4.93348 3.71456 4.14433 3.14367 3.28486 3.1589C2.16754 3.17412 1.12836 3.79068 0.557982 4.7726C-0.614028 6.73644 0.253259 9.64415 1.3862 11.2426C1.94095 12.0343 2.60509 12.902 3.48019 12.8716C4.30841 12.8411 4.63657 12.3463 5.63669 12.3463C6.64462 12.3463 6.93371 12.8716 7.80881 12.8563C8.71517 12.8411 9.28554 12.0647 9.84029 11.2731C10.4732 10.3749 10.731 9.49952 10.7466 9.45385C10.731 9.43863 8.99645 8.79163 8.98082 6.84301C8.96519 5.21408 10.3482 4.43768 10.4107 4.39201C9.62933 3.26546 8.41044 3.14367 7.98852 3.11323ZM14.2627 0.905804V12.7726H16.1535V8.71551H18.771C21.1619 8.71551 22.8418 7.11703 22.8418 4.80304C22.8418 2.48906 21.1932 0.905804 18.8335 0.905804H14.2627ZM16.1535 2.45861H18.3335C19.9743 2.45861 20.9119 3.31113 20.9119 4.81066C20.9119 6.31018 19.9743 7.17031 18.3256 7.17031H16.1535V2.45861ZM26.2953 12.8639C27.4829 12.8639 28.5846 12.2778 29.0847 11.3492H29.1238V12.7726H30.874V6.86584C30.874 5.15319 29.4675 4.04948 27.3032 4.04948C25.2952 4.04948 23.8106 5.16841 23.756 6.70599H25.4593C25.5999 5.97526 26.2953 5.49572 27.2485 5.49572C28.4049 5.49572 29.0534 6.02093 29.0534 6.98763V7.64225L26.6938 7.77926C24.4982 7.90866 23.3106 8.78401 23.3106 10.3064C23.3106 11.844 24.5373 12.8639 26.2953 12.8639ZM26.8032 11.4558C25.7952 11.4558 25.1545 10.9838 25.1545 10.2607C25.1545 9.51475 25.7718 9.08088 26.9516 9.01237L29.0534 8.88297V9.55281C29.0534 10.6641 28.0846 11.4558 26.8032 11.4558ZM33.2102 16C35.0541 16 35.9214 15.3149 36.6793 13.2369L40 4.16365H38.0779L35.8511 11.1741H35.812L33.5852 4.16365H31.6084L34.8119 12.803L34.64 13.3283C34.3509 14.2188 33.8821 14.5614 33.0461 14.5614C32.8976 14.5614 32.6085 14.5461 32.4913 14.5309V15.9543C32.6007 15.9848 33.0695 16 33.2102 16Z" fill="white"/>
</svg>
