<svg width="40" height="19" viewBox="0 0 40 19" fill="none" xmlns="http://www.w3.org/2000/svg">
<g id="gpay 1" clip-path="url(#clip0_474_1215)">
<path id="Vector" d="M18.9 9.82415V14.4619H17.4V2.99213H21.3C22.25 2.99213 23.15 3.34121 23.85 3.9895C24.55 4.58793 24.9 5.48556 24.9 6.43307C24.9 7.38058 24.55 8.22835 23.85 8.87664C23.15 9.52494 22.3 9.87402 21.3 9.87402L18.9 9.82415ZM18.9 4.38845V8.37795H21.4C21.95 8.37795 22.5 8.17848 22.85 7.77953C23.65 7.0315 23.65 5.78478 22.9 5.03675L22.85 4.98688C22.45 4.58793 21.95 4.33858 21.4 4.38845H18.9Z" fill="white"/>
<path id="Vector_2" d="M28.35 6.38321C29.45 6.38321 30.3 6.68242 30.95 7.28085C31.6 7.87927 31.9 8.67717 31.9 9.67455V14.462H30.5V13.3648H30.45C29.85 14.2625 29 14.7113 28 14.7113C27.15 14.7113 26.4 14.4619 25.8 13.9633C25.25 13.4646 24.9 12.7664 24.9 12.0184C24.9 11.2205 25.2 10.5722 25.8 10.0735C26.4 9.57481 27.25 9.37533 28.25 9.37533C29.15 9.37533 29.85 9.52494 30.4 9.87402V9.52494C30.4 9.02625 30.2 8.52757 29.8 8.22835C29.4 7.87927 28.9 7.6798 28.35 7.6798C27.5 7.6798 26.85 8.02888 26.4 8.72704L25.1 7.92914C25.9 6.8819 26.95 6.38321 28.35 6.38321ZM26.45 12.0682C26.45 12.4672 26.65 12.8163 26.95 13.0158C27.3 13.2651 27.7 13.4147 28.1 13.4147C28.7 13.4147 29.3 13.1654 29.75 12.7165C30.25 12.2677 30.5 11.7192 30.5 11.1207C30.05 10.7717 29.4 10.5722 28.55 10.5722C27.95 10.5722 27.45 10.7218 27.05 11.021C26.65 11.2703 26.45 11.6194 26.45 12.0682Z" fill="white"/>
<path id="Vector_3" d="M40 6.63254L35.05 17.9527H33.55L35.4 14.0131L32.15 6.68241H33.75L36.1 12.3176H36.15L38.45 6.68241H40V6.63254Z" fill="white"/>
<path id="Vector_4" d="M12.95 8.82677C12.95 8.37795 12.9 7.92914 12.85 7.48032H6.59998V10.0236H10.15C9.99998 10.8215 9.54998 11.5696 8.84998 12.0184V13.664H11C12.25 12.5171 12.95 10.8215 12.95 8.82677Z" fill="#4285F4"/>
<path id="Vector_5" d="M6.60001 15.2598C8.40001 15.2598 9.90001 14.6614 11 13.664L8.85001 12.0184C8.25001 12.4173 7.50001 12.6667 6.60001 12.6667C4.90001 12.6667 3.40001 11.5197 2.90001 9.92389H0.700012V11.6194C1.85001 13.8635 4.10001 15.2598 6.60001 15.2598Z" fill="#34A853"/>
<path id="Vector_6" d="M2.89999 9.92387C2.59999 9.12597 2.59999 8.22834 2.89999 7.38057V5.68503H0.699988C-0.250012 7.53017 -0.250012 9.7244 0.699988 11.6194L2.89999 9.92387Z" fill="#FBBC04"/>
<path id="Vector_7" d="M6.6 4.68766C7.55 4.68766 8.45 5.03674 9.15 5.68503L11.05 3.79002C9.85 2.69291 8.25 2.04461 6.65 2.09448C4.15 2.09448 1.85 3.49081 0.75 5.7349L2.95 7.43044C3.4 5.83464 4.9 4.68766 6.6 4.68766Z" fill="#EA4335"/>
</g>
<defs>
<clipPath id="clip0_474_1215">
<rect width="40" height="19" fill="white"/>
</clipPath>
</defs>
</svg>
