<svg width="73" height="19" viewBox="0 0 73 19" fill="none" xmlns="http://www.w3.org/2000/svg">
<g id="Group">
<path id="Vector" d="M23.3429 3.79947C23.1927 3.79947 23.065 3.90654 23.0415 4.05235L21.3025 14.8795C21.2962 14.919 21.2986 14.9594 21.3098 14.998C21.3209 15.0365 21.3404 15.0722 21.3669 15.1026C21.3934 15.133 21.4263 15.1575 21.4633 15.1742C21.5003 15.191 21.5406 15.1996 21.5814 15.1996H23.6438C23.7938 15.1996 23.9216 15.0924 23.9451 14.9468L24.456 11.7673C24.4793 11.6217 24.6071 11.5144 24.7573 11.5144H26.6324C28.8233 11.5144 30.6831 9.9451 31.0228 7.81861C31.3653 5.67414 29.6588 3.80412 27.2401 3.79947H23.3429ZM25.3477 6.2165H26.848C28.0831 6.2165 28.4853 6.93196 28.3581 7.72318C28.2309 8.51609 27.6063 9.10014 26.4115 9.10014H24.8845L25.3477 6.2165ZM35.2174 6.95249C34.6966 6.95439 34.0974 7.05914 33.4247 7.33423C31.8815 7.96569 31.1405 9.2707 30.8258 10.2221C30.8258 10.2221 29.8241 13.1248 32.0872 14.7195C32.0872 14.7195 34.186 16.2547 36.5486 14.6249L36.5079 14.8795C36.5016 14.919 36.504 14.9594 36.5151 14.9979C36.5262 15.0364 36.5457 15.072 36.5721 15.1024C36.5986 15.1329 36.6314 15.1573 36.6684 15.1741C36.7054 15.1909 36.7456 15.1996 36.7864 15.1996H38.7442C38.8945 15.1996 39.0221 15.0924 39.0456 14.9468L40.2365 7.5323C40.2429 7.49276 40.2405 7.45232 40.2294 7.41378C40.2183 7.37524 40.1989 7.33951 40.1725 7.30904C40.146 7.27858 40.1131 7.2541 40.0761 7.2373C40.0391 7.2205 39.9988 7.21177 39.958 7.21171H38.0002C37.8499 7.21171 37.7221 7.319 37.6988 7.46459L37.6348 7.86369C37.6348 7.86369 36.7799 6.94677 35.2174 6.95249ZM35.2814 9.2944C35.5062 9.2944 35.7119 9.32487 35.8964 9.38306C36.7411 9.64927 37.2201 10.446 37.0815 11.3096C36.9105 12.3729 36.0223 13.1559 34.8831 13.1559C34.6585 13.1559 34.4528 13.1256 34.2681 13.0674C33.4236 12.8012 32.9416 12.0045 33.0802 11.1409C33.2511 10.0776 34.1422 9.2944 35.2814 9.2944Z" fill="#003087"/>
<path id="Vector_2" d="M51.537 3.79947C51.3867 3.79947 51.2591 3.90654 51.2356 4.05235L49.4966 14.8795C49.4903 14.919 49.4927 14.9594 49.5038 14.998C49.515 15.0365 49.5344 15.0722 49.5609 15.1026C49.5875 15.133 49.6204 15.1575 49.6574 15.1742C49.6944 15.191 49.7347 15.1996 49.7755 15.1996H51.8379C51.9879 15.1996 52.1157 15.0924 52.1392 14.9468L52.6501 11.7673C52.6734 11.6217 52.8012 11.5144 52.9514 11.5144H54.8265C57.0174 11.5144 58.8769 9.9451 59.2164 7.81861C59.5591 5.67414 57.8528 3.80412 55.4341 3.79947H51.537ZM53.5418 6.2165H55.0421C56.2772 6.2165 56.6794 6.93196 56.5522 7.72318C56.425 8.51609 55.8006 9.10014 54.6056 9.10014H53.0786L53.5418 6.2165ZM63.4113 6.95249C62.8905 6.95439 62.2913 7.05914 61.6185 7.33423C60.0754 7.96569 59.3343 9.2707 59.0196 10.2221C59.0196 10.2221 58.0184 13.1248 60.2815 14.7195C60.2815 14.7195 62.3799 16.2547 64.7427 14.6249L64.702 14.8795C64.6957 14.919 64.6981 14.9594 64.7093 14.998C64.7204 15.0365 64.7398 15.0722 64.7664 15.1026C64.7929 15.133 64.8258 15.1575 64.8628 15.1742C64.8998 15.191 64.9401 15.1996 64.9809 15.1996H66.9385C67.0888 15.1996 67.2164 15.0924 67.2399 14.9468L68.4312 7.5323C68.4376 7.49272 68.4352 7.45225 68.4241 7.41368C68.413 7.37511 68.3936 7.33936 68.3671 7.30888C68.3405 7.27841 68.3076 7.25394 68.2705 7.23717C68.2335 7.22039 68.1931 7.21171 68.1523 7.21171H66.1945C66.0442 7.21171 65.9164 7.319 65.8931 7.46459L65.8291 7.86369C65.8291 7.86369 64.9738 6.94677 63.4113 6.95249ZM63.4753 9.2944C63.7001 9.2944 63.9057 9.32487 64.0903 9.38306C64.935 9.64927 65.4139 10.446 65.2754 11.3096C65.1044 12.3729 64.2161 13.1559 63.0769 13.1559C62.8523 13.1559 62.6467 13.1256 62.462 13.0674C61.6174 12.8012 61.1355 12.0045 61.2741 11.1409C61.445 10.0776 62.3361 9.2944 63.4753 9.2944Z" fill="#0070E0"/>
<path id="Vector_3" d="M41.1655 7.21173C41.0103 7.21173 40.9 7.36049 40.9474 7.50545L43.0938 14.0445L41.153 17.126C41.0588 17.2756 41.1683 17.4688 41.3475 17.4688H43.6413C43.7069 17.4687 43.7714 17.4521 43.8286 17.4204C43.8857 17.3887 43.9335 17.3432 43.9675 17.2881L49.9622 7.55242C50.0542 7.40281 49.9443 7.21152 49.7662 7.21152H47.4726C47.4063 7.21157 47.3412 7.22856 47.2837 7.2608C47.2262 7.29304 47.1782 7.33944 47.1445 7.39541L44.7848 11.3064L43.587 7.4244C43.548 7.29807 43.4292 7.21152 43.295 7.21152L41.1655 7.21173Z" fill="#003087"/>
<path id="Vector_4" d="M70.6557 3.79947C70.5057 3.79947 70.3779 3.90676 70.3544 4.05235L68.6149 14.8791C68.6085 14.9186 68.6109 14.9591 68.622 14.9977C68.6331 15.0362 68.6525 15.072 68.6791 15.1025C68.7056 15.1329 68.7385 15.1574 68.7756 15.1742C68.8126 15.191 68.853 15.1996 68.8938 15.1996H70.9562C71.1062 15.1996 71.234 15.0924 71.2575 14.9468L72.9966 4.11964C73.0029 4.08012 73.0004 4.03974 72.9894 4.00125C72.9783 3.96276 72.9588 3.92708 72.9324 3.89666C72.9059 3.86625 72.8731 3.84181 72.8361 3.82503C72.7991 3.80826 72.7588 3.79954 72.7181 3.79947H70.6557Z" fill="#0070E0"/>
<path id="Vector_5" d="M6.14925 3.79947C6.0164 3.79958 5.88794 3.84619 5.78696 3.93094C5.68597 4.01569 5.61907 4.13302 5.5983 4.26184L4.68286 9.96182C4.72554 9.69561 4.95919 9.49945 5.2338 9.49945H7.91634C10.6161 9.49945 12.907 7.56595 13.3256 4.94577C13.3567 4.75015 13.3744 4.55269 13.3784 4.35474C12.6923 4.00156 11.8864 3.79947 11.0032 3.79947H6.14925Z" fill="#001C64"/>
<path id="Vector_6" d="M13.3784 4.35498C13.3744 4.55293 13.3567 4.7504 13.3255 4.94601C12.9069 7.56619 10.6159 9.49969 7.9163 9.49969H5.23376C4.95937 9.49969 4.7255 9.69564 4.68282 9.96206L3.84109 15.1999L3.31385 18.4858C3.30356 18.5493 3.30742 18.6142 3.32517 18.6761C3.34292 18.738 3.37414 18.7953 3.41666 18.8442C3.45918 18.8931 3.51199 18.9323 3.57146 18.9592C3.63094 18.9861 3.69564 19 3.76112 19H6.67279C6.80564 18.9999 6.9341 18.9533 7.03508 18.8685C7.13607 18.7838 7.20296 18.6665 7.22373 18.5376L7.99066 13.7622C8.01144 13.6333 8.0784 13.5159 8.17947 13.4312C8.28055 13.3464 8.40912 13.2998 8.54205 13.2998H10.2563C12.9561 13.2998 15.247 11.3663 15.6656 8.74614C15.9628 6.88649 15.0088 5.19423 13.3784 4.35498Z" fill="#0070E0"/>
<path id="Vector_7" d="M2.84141 0C2.56702 0 2.33315 0.195953 2.29047 0.461949L0.00562335 14.6857C-0.0377024 14.9557 0.174837 15.1999 0.453329 15.1999H3.84158L4.68287 9.96206L5.59831 4.26208C5.61908 4.13325 5.68598 4.01593 5.78697 3.93118C5.88795 3.84643 6.01641 3.79981 6.14926 3.7997H11.0033C11.8866 3.7997 12.6923 4.00201 13.3784 4.35497C13.4254 1.96947 11.4203 0 8.66366 0H2.84141Z" fill="#003087"/>
</g>
</svg>
