<svg width="80" height="10" viewBox="0 0 80 10" fill="none" xmlns="http://www.w3.org/2000/svg">
<path d="M0 7.85714V0.238095H2.71476C3.34506 0.238095 3.86029 0.345982 4.26044 0.561756C4.66321 0.77505 4.96136 1.06399 5.1549 1.42857C5.34844 1.79315 5.44521 2.1999 5.44521 2.64881C5.44521 3.09772 5.34844 3.5057 5.1549 3.87277C4.96398 4.23983 4.66844 4.53249 4.26829 4.75074C3.86814 4.96652 3.35552 5.0744 2.73045 5.0744H0.784612V4.25595H2.69906C3.1306 4.25595 3.47714 4.18527 3.73868 4.0439C4.00021 3.90253 4.18983 3.71156 4.30752 3.47098C4.42783 3.22793 4.48798 2.95387 4.48798 2.64881C4.48798 2.34375 4.42783 2.07093 4.30752 1.83036C4.18983 1.58978 3.9989 1.40129 3.73475 1.26488C3.4706 1.12599 3.12014 1.05655 2.68337 1.05655H0.972919V7.85714H0Z" fill="white"/>
<path d="M8.66015 7.99107C8.27831 7.99107 7.93177 7.92287 7.62054 7.78646C7.30931 7.64757 7.06216 7.44792 6.87908 7.1875C6.69601 6.9246 6.60447 6.60714 6.60447 6.23512C6.60447 5.90774 6.67247 5.64236 6.80847 5.43899C6.94447 5.23313 7.12624 5.07192 7.35377 4.95536C7.58131 4.83879 7.83239 4.75198 8.107 4.69494C8.38423 4.63542 8.66277 4.58829 8.94261 4.55357C9.30876 4.50893 9.60561 4.47545 9.83315 4.45312C10.0633 4.42832 10.2307 4.3874 10.3353 4.33036C10.4425 4.27331 10.4961 4.17411 10.4961 4.03274V4.00298C10.4961 3.63591 10.3902 3.35069 10.1784 3.14732C9.96915 2.94395 9.65138 2.84226 9.22507 2.84226C8.78307 2.84226 8.43654 2.93403 8.18546 3.11756C7.93439 3.30109 7.75785 3.49702 7.65585 3.70536L6.77708 3.40774C6.93401 3.06052 7.14324 2.79018 7.40477 2.59673C7.66893 2.40079 7.95662 2.26438 8.26785 2.1875C8.58169 2.10813 8.8903 2.06845 9.19369 2.06845C9.38723 2.06845 9.60953 2.09077 9.86061 2.13542C10.1143 2.17758 10.3588 2.26562 10.5942 2.39955C10.8322 2.53348 11.0297 2.73562 11.1866 3.00595C11.3435 3.27629 11.422 3.63839 11.422 4.09226V7.85714H10.4961V7.08333H10.4491C10.3863 7.20734 10.2817 7.34003 10.1352 7.4814C9.98876 7.62277 9.79392 7.74306 9.55069 7.84226C9.30746 7.94147 9.01061 7.99107 8.66015 7.99107ZM8.80138 7.20238C9.16753 7.20238 9.47615 7.13418 9.72722 6.99777C9.98092 6.86136 10.1718 6.68527 10.3 6.46949C10.4308 6.25372 10.4961 6.02679 10.4961 5.78869V4.98512C10.4569 5.02976 10.3706 5.07068 10.2372 5.10789C10.1065 5.14261 9.95476 5.17361 9.78215 5.20089C9.61215 5.22569 9.44607 5.24802 9.28392 5.26786C9.12438 5.28522 8.99492 5.3001 8.89554 5.3125C8.65492 5.34226 8.43 5.39062 8.22077 5.45759C8.01416 5.52207 7.84677 5.62004 7.71862 5.75149C7.59308 5.88046 7.53031 6.05655 7.53031 6.27976C7.53031 6.58482 7.64931 6.81548 7.88731 6.97173C8.12792 7.1255 8.43262 7.20238 8.80138 7.20238Z" fill="white"/>
<path d="M13.4924 10C13.3355 10 13.1955 9.9876 13.0726 9.9628C12.9497 9.94048 12.8647 9.91815 12.8176 9.89583L13.053 9.12202C13.2779 9.17659 13.4767 9.19643 13.6493 9.18155C13.8219 9.16667 13.9749 9.0935 14.1083 8.96205C14.2443 8.83309 14.3685 8.62351 14.481 8.33333L14.6536 7.8869L12.4253 2.14286H13.4296L15.093 6.69643H15.1558L16.8191 2.14286H17.8234L15.2656 8.69048C15.1505 8.98561 15.008 9.22991 14.838 9.42336C14.668 9.6193 14.4705 9.76438 14.2456 9.85863C14.0233 9.95288 13.7722 10 13.4924 10Z" fill="white"/>
<path d="M23.5178 7.85714L21.6818 2.14286H22.6547L23.9571 6.51786H24.0199L25.3067 2.14286H26.2953L27.5664 6.50298H27.6291L28.9316 2.14286H29.9045L28.0685 7.85714H27.1584L25.8402 3.46726H25.7461L24.4279 7.85714H23.5178Z" fill="white"/>
<path d="M31.1285 7.85714V2.14286H32.0543V7.85714H31.1285ZM31.5993 1.19048C31.4188 1.19048 31.2632 1.13219 31.1324 1.01562C31.0043 0.899057 30.9402 0.758929 30.9402 0.595238C30.9402 0.431548 31.0043 0.291419 31.1324 0.174851C31.2632 0.0582836 31.4188 0 31.5993 0C31.7797 0 31.934 0.0582836 32.0622 0.174851C32.1929 0.291419 32.2583 0.431548 32.2583 0.595238C32.2583 0.758929 32.1929 0.899057 32.0622 1.01562C31.934 1.13219 31.7797 1.19048 31.5993 1.19048Z" fill="white"/>
<path d="M36.3707 2.14286V2.8869H33.2479V2.14286H36.3707ZM34.1581 0.773809H35.0839V6.22024C35.0839 6.46825 35.1218 6.65427 35.1977 6.77827C35.2761 6.8998 35.3755 6.98165 35.4958 7.02381C35.6188 7.06349 35.7482 7.08333 35.8842 7.08333C35.9862 7.08333 36.0699 7.07837 36.1353 7.06845C36.2007 7.05605 36.253 7.04613 36.2922 7.03869L36.4805 7.82738C36.4178 7.8497 36.3301 7.87202 36.2177 7.89435C36.1052 7.91915 35.9627 7.93155 35.7901 7.93155C35.5285 7.93155 35.2722 7.87822 35.0211 7.77158C34.7727 7.66493 34.5661 7.50248 34.4013 7.28423C34.2392 7.06597 34.1581 6.79067 34.1581 6.45833V0.773809Z" fill="white"/>
<path d="M38.8187 4.41964V7.85714H37.8928V0.238095H38.8187V3.03571H38.8971C39.0384 2.74058 39.2502 2.5062 39.5327 2.33259C39.8177 2.1565 40.197 2.06845 40.6703 2.06845C41.081 2.06845 41.4406 2.14658 41.7492 2.30283C42.0578 2.4566 42.2971 2.69345 42.4671 3.01339C42.6397 3.33085 42.726 3.73512 42.726 4.22619V7.85714H41.8002V4.28571C41.8002 3.83185 41.676 3.4809 41.4275 3.23289C41.1817 2.98239 40.8404 2.85714 40.4036 2.85714C40.1002 2.85714 39.8282 2.91791 39.5876 3.03943C39.3496 3.16096 39.1613 3.33829 39.0227 3.57143C38.8867 3.80456 38.8187 4.0873 38.8187 4.41964Z" fill="white"/>
<path d="M49.9749 7.97619C49.4099 7.97619 48.9235 7.8497 48.5155 7.59673C48.1075 7.34375 47.7936 6.99529 47.574 6.55134C47.3543 6.10739 47.2444 5.6002 47.2444 5.02976C47.2444 4.4494 47.3569 3.93725 47.5818 3.4933C47.8093 3.04687 48.1258 2.69841 48.5312 2.44792C48.9392 2.19494 49.4152 2.06845 49.9592 2.06845C50.3829 2.06845 50.7647 2.14286 51.1047 2.29167C51.4447 2.44048 51.7232 2.64881 51.9403 2.91667C52.1574 3.18452 52.2921 3.49702 52.3444 3.85417H51.4186C51.3479 3.59375 51.191 3.36309 50.9478 3.1622C50.7072 2.95883 50.3829 2.85714 49.9749 2.85714C49.6139 2.85714 49.2975 2.94643 49.0255 3.125C48.7561 3.30109 48.5456 3.55035 48.3939 3.87277C48.2448 4.19271 48.1703 4.56845 48.1703 5C48.1703 5.44147 48.2435 5.82589 48.3899 6.15327C48.539 6.48065 48.7483 6.73487 49.0176 6.91592C49.2896 7.09697 49.6087 7.1875 49.9749 7.1875C50.2155 7.1875 50.4339 7.14782 50.63 7.06845C50.8262 6.98909 50.9922 6.875 51.1282 6.72619C51.2642 6.57738 51.361 6.39881 51.4186 6.19048H52.3444C52.2921 6.52778 52.1626 6.8316 51.956 7.10193C51.752 7.36979 51.4813 7.58309 51.1439 7.74182C50.8092 7.89807 50.4195 7.97619 49.9749 7.97619Z" fill="white"/>
<path d="M53.6978 7.85714V2.14286H54.5923V3.00595H54.6551C54.7649 2.72321 54.9637 2.4938 55.2514 2.31771C55.5391 2.14162 55.8634 2.05357 56.2243 2.05357C56.2923 2.05357 56.3773 2.05481 56.4793 2.05729C56.5813 2.05977 56.6585 2.06349 56.7108 2.06845V2.96131C56.6794 2.95387 56.6075 2.94271 56.495 2.92783C56.3851 2.91047 56.2688 2.90179 56.1458 2.90179C55.8529 2.90179 55.5914 2.96007 55.3612 3.07664C55.1337 3.19072 54.9532 3.34945 54.8198 3.55283C54.6891 3.75372 54.6237 3.98313 54.6237 4.24107V7.85714H53.6978Z" fill="white"/>
<path d="M58.5879 10C58.431 10 58.2911 9.9876 58.1682 9.9628C58.0452 9.94048 57.9603 9.91815 57.9132 9.89583L58.1486 9.12202C58.3735 9.17659 58.5723 9.19643 58.7449 9.18155C58.9175 9.16667 59.0705 9.0935 59.2039 8.96205C59.3399 8.83309 59.4641 8.62351 59.5766 8.33333L59.7492 7.8869L57.5209 2.14286H58.5252L60.1885 6.69643H60.2513L61.9147 2.14286H62.919L60.3612 8.69048C60.2461 8.98561 60.1036 9.22991 59.9336 9.42336C59.7636 9.6193 59.5661 9.76438 59.3412 9.85863C59.1189 9.95288 58.8678 10 58.5879 10Z" fill="white"/>
<path d="M64.141 10V2.14286H65.0355V3.05059H65.1453C65.2133 2.95139 65.3075 2.8249 65.4278 2.67113C65.5507 2.51488 65.726 2.37599 65.9535 2.25446C66.1836 2.13046 66.4949 2.06845 66.8872 2.06845C67.3946 2.06845 67.8418 2.18874 68.2289 2.42932C68.6159 2.66989 68.918 3.01091 69.1351 3.45238C69.3522 3.89385 69.4607 4.41468 69.4607 5.01488C69.4607 5.62004 69.3522 6.14459 69.1351 6.58854C68.918 7.03001 68.6172 7.37227 68.2328 7.61533C67.8483 7.8559 67.405 7.97619 66.9029 7.97619C66.5158 7.97619 66.2059 7.91543 65.9731 7.7939C65.7403 7.66989 65.5612 7.52976 65.4356 7.37351C65.3101 7.21478 65.2133 7.08333 65.1453 6.97917H65.0669V10H64.141ZM65.0512 5C65.0512 5.43155 65.1179 5.81225 65.2513 6.14211C65.3846 6.46949 65.5795 6.72619 65.8358 6.9122C66.0921 7.09573 66.4059 7.1875 66.7773 7.1875C67.1644 7.1875 67.4874 7.09077 67.7463 6.89732C68.0079 6.70139 68.204 6.43849 68.3348 6.10863C68.4682 5.77629 68.5349 5.40675 68.5349 5C68.5349 4.59821 68.4695 4.23611 68.3387 3.91369C68.2105 3.58879 68.0157 3.33209 67.7542 3.1436C67.4952 2.95263 67.1696 2.85714 66.7773 2.85714C66.4007 2.85714 66.0843 2.94767 65.8279 3.12872C65.5716 3.30729 65.3781 3.55779 65.2473 3.88021C65.1166 4.20015 65.0512 4.57341 65.0512 5Z" fill="white"/>
<path d="M73.4936 2.14286V2.8869H70.3708V2.14286H73.4936ZM71.281 0.773809H72.2068V6.22024C72.2068 6.46825 72.2448 6.65427 72.3206 6.77827C72.3991 6.8998 72.4985 6.98165 72.6188 7.02381C72.7417 7.06349 72.8711 7.08333 73.0071 7.08333C73.1091 7.08333 73.1928 7.07837 73.2582 7.06845C73.3236 7.05605 73.3759 7.04613 73.4151 7.03869L73.6034 7.82738C73.5407 7.8497 73.4531 7.87202 73.3406 7.89435C73.2281 7.91915 73.0856 7.93155 72.913 7.93155C72.6515 7.93155 72.3951 7.87822 72.1441 7.77158C71.8956 7.66493 71.689 7.50248 71.5242 7.28423C71.3621 7.06597 71.281 6.79067 71.281 6.45833V0.773809Z" fill="white"/>
<path d="M77.2695 7.97619C76.7255 7.97619 76.2482 7.85342 75.8376 7.60789C75.4296 7.36235 75.1106 7.01885 74.8804 6.57738C74.6529 6.13591 74.5391 5.62004 74.5391 5.02976C74.5391 4.43452 74.6529 3.91493 74.8804 3.47098C75.1106 3.02703 75.4296 2.68229 75.8376 2.43676C76.2482 2.19122 76.7255 2.06845 77.2695 2.06845C77.8135 2.06845 78.2895 2.19122 78.6975 2.43676C79.1082 2.68229 79.4272 3.02703 79.6548 3.47098C79.8849 3.91493 80 4.43452 80 5.02976C80 5.62004 79.8849 6.13591 79.6548 6.57738C79.4272 7.01885 79.1082 7.36235 78.6975 7.60789C78.2895 7.85342 77.8135 7.97619 77.2695 7.97619ZM77.2695 7.1875C77.6828 7.1875 78.0228 7.08705 78.2895 6.88616C78.5563 6.68527 78.7538 6.42113 78.8819 6.09375C79.0101 5.76637 79.0742 5.41171 79.0742 5.02976C79.0742 4.64782 79.0101 4.29191 78.8819 3.96205C78.7538 3.63219 78.5563 3.36558 78.2895 3.1622C78.0228 2.95883 77.6828 2.85714 77.2695 2.85714C76.8563 2.85714 76.5163 2.95883 76.2495 3.1622C75.9828 3.36558 75.7853 3.63219 75.6572 3.96205C75.529 4.29191 75.4649 4.64782 75.4649 5.02976C75.4649 5.41171 75.529 5.76637 75.6572 6.09375C75.7853 6.42113 75.9828 6.68527 76.2495 6.88616C76.5163 7.08705 76.8563 7.1875 77.2695 7.1875Z" fill="white"/>
</svg>
