<svg width="13" height="14" viewBox="0 0 13 14" fill="none" xmlns="http://www.w3.org/2000/svg">
<g id="Icon" clip-path="url(#clip0_72_3476)">
<path id="Vector" d="M11.8574 2.63281L6.98242 0.601562C6.83008 0.533854 6.66927 0.5 6.5 0.5C6.34766 0.5 6.19531 0.533854 6.04297 0.601562L1.16797 2.63281C0.677083 2.85286 0.423177 3.2168 0.40625 3.72461C0.457031 5.9082 0.888672 7.72786 1.70117 9.18359C2.51367 10.6224 3.39388 11.7057 4.3418 12.4336C5.30664 13.1445 6.02604 13.5 6.5 13.5C6.99089 13.5 7.71029 13.1361 8.6582 12.4082C9.60612 11.6973 10.4863 10.6139 11.2988 9.1582C12.1113 7.70247 12.543 5.89128 12.5938 3.72461C12.5768 3.2168 12.3314 2.85286 11.8574 2.63281ZM8.9375 5.57812C8.9375 5.73047 8.88672 5.86589 8.78516 5.98438L6.34766 8.82812C6.16146 8.98047 6.00911 9.03971 5.89062 9.00586C5.72135 9.00586 5.57747 8.94661 5.45898 8.82812L4.24023 7.60938C4.12174 7.50781 4.0625 7.36393 4.0625 7.17773C4.09635 6.82227 4.29948 6.61914 4.67188 6.56836C4.84115 6.56836 4.98503 6.6276 5.10352 6.74609L5.86523 7.50781L7.87109 5.14648C7.98958 5.01107 8.14193 4.94336 8.32812 4.94336C8.5651 4.97721 8.72591 5.06185 8.81055 5.19727C8.89518 5.34961 8.9375 5.47656 8.9375 5.57812Z" fill="#2B2B2B"/>
</g>
<defs>
<clipPath id="clip0_72_3476">
<rect width="13" height="13" fill="white" transform="matrix(1 0 0 -1 0 13.5)"/>
</clipPath>
</defs>
</svg>
