<svg width="56" height="23" viewBox="0 0 56 23" fill="none" xmlns="http://www.w3.org/2000/svg">
<g id="Group">
<g id="Mask group">
<mask id="mask0_474_1597" style="mask-type:luminance" maskUnits="userSpaceOnUse" x="0" y="0" width="56" height="23">
<g id="Group_2">
<path id="Vector" d="M0 0H56V23H0V0Z" fill="white"/>
</g>
</mask>
<g mask="url(#mask0_474_1597)">
<path id="Vector_2" fill-rule="evenodd" clip-rule="evenodd" d="M5.84498 10.346C4.63811 9.90397 3.97671 9.5602 3.97671 9.01999C3.97671 8.56154 4.35701 8.29966 5.03491 8.29966C6.27488 8.29966 7.54783 8.77443 8.42412 9.19998L8.92011 6.17158C8.22573 5.84414 6.80385 5.30392 4.83651 5.30392C3.44774 5.30392 2.29035 5.66403 1.46378 6.33524C0.603988 7.03912 0.157598 8.05411 0.157598 9.28187C0.157598 11.5082 1.52988 12.4577 3.76183 13.2598C5.20019 13.7672 5.67969 14.1275 5.67969 14.684C5.67969 15.2242 5.21669 15.5352 4.3735 15.5352C3.33193 15.5352 1.61258 15.0278 0.488299 14.373L-0.00769043 17.4342C0.95118 17.9744 2.73674 18.531 4.58852 18.531C6.05987 18.531 7.28335 18.1872 8.11004 17.5324C9.0358 16.8121 9.5153 15.7481 9.5153 14.373C9.5153 12.0975 8.11004 11.1481 5.84498 10.346ZM17.5896 8.56154L18.0856 5.54948H15.4672V1.89296L11.9466 2.46657L11.4382 5.54948L10.2 5.74837L9.73651 8.56154H11.4332V14.4712C11.4332 16.01 11.83 17.0741 12.64 17.7289C13.3179 18.2691 14.2933 18.531 15.6656 18.531C16.7236 18.531 17.3684 18.351 17.8148 18.2363V15.0441C17.5668 15.1097 17.0047 15.2242 16.6244 15.2242C15.8144 15.2242 15.4672 14.815 15.4672 13.8819V8.56154H17.5896ZM25.453 5.37354C24.2958 5.37354 23.3699 5.97514 23.0062 7.05557L22.7582 5.54948H19.1706V18.2854H23.2707V10.0185C23.7833 9.39642 24.5107 9.17149 25.5026 9.17149C25.7176 9.17149 25.949 9.17149 26.2301 9.2206V5.47176C25.949 5.40632 25.701 5.37354 25.453 5.37354ZM29.2888 4.28893C30.4791 4.28893 31.438 3.32318 31.438 2.14453C31.438 0.949427 30.4791 0 29.2888 0C28.0818 0 27.1229 0.949427 27.1229 2.14453C27.1229 3.32318 28.0818 4.28893 29.2888 4.28893ZM27.2221 5.54948H31.3388V18.2854H27.2221V5.54948ZM43.0048 6.69534C42.2774 5.76225 41.2689 5.30392 39.9793 5.30392C38.7889 5.30392 37.7474 5.79503 36.7719 6.82635L36.557 5.54948H32.9528V23L37.053 22.3289V18.2363C37.6811 18.4327 38.3259 18.531 38.9046 18.531C39.9297 18.531 41.4177 18.2691 42.5749 17.025C43.6826 15.8299 44.2448 13.9801 44.2448 11.5409C44.2448 9.38009 43.8314 7.74312 43.0048 6.69534ZM39.599 14.553C39.2683 15.1751 38.7558 15.5026 38.1606 15.5026C37.7474 15.5026 37.3836 15.4207 37.053 15.257V9.19998C37.7474 8.47977 38.3755 8.39788 38.607 8.39788C39.6486 8.39788 40.1611 9.51109 40.1611 11.6883C40.1611 12.9324 39.9793 13.8982 39.599 14.553ZM55.9998 11.8028C55.9998 9.77297 55.5534 8.16866 54.6771 7.03912C53.7843 5.89325 52.4451 5.30392 50.7423 5.30392C47.2537 5.30392 45.088 7.85767 45.088 11.9502C45.088 14.242 45.6666 15.9609 46.8073 17.0576C47.8324 18.0399 49.3039 18.531 51.2052 18.531C52.9576 18.531 54.5779 18.1217 55.603 17.4505L55.1566 14.6677C54.148 15.2079 52.9742 15.5026 51.6515 15.5026C50.858 15.5026 50.3124 15.3388 49.9156 14.995C49.4857 14.6349 49.2377 14.0456 49.1551 13.2107H55.9502C55.9666 13.0143 55.9998 12.0975 55.9998 11.8028ZM49.122 10.7224C49.2377 8.90531 49.7337 8.05411 50.6761 8.05411C51.6019 8.05411 52.0814 8.92177 52.1475 10.7224H49.122Z" fill="#6772E5"/>
</g>
</g>
</g>
</svg>
