<svg width="75" height="55" viewBox="0 0 75 55" fill="none" xmlns="http://www.w3.org/2000/svg">
<g id="Frame 264">
<rect width="75" height="55" rx="5" fill="#3B3B3B"/>
<g id="Group">
<g id="Mask group">
<mask id="mask0_161_6412" style="mask-type:luminance" maskUnits="userSpaceOnUse" x="7" y="15" width="60" height="25">
<g id="Group_2">
<path id="Vector" d="M7.9519 15H67V39.3968H7.9519V15Z" fill="white"/>
</g>
</mask>
<g mask="url(#mask0_161_6412)">
<path id="Vector_2" fill-rule="evenodd" clip-rule="evenodd" d="M14.1152 25.9743C12.8426 25.5055 12.1452 25.1408 12.1452 24.5678C12.1452 24.0815 12.5462 23.8037 13.261 23.8037C14.5685 23.8037 15.9107 24.3073 16.8347 24.7587L17.3577 21.5464C16.6255 21.1991 15.1262 20.626 13.0518 20.626C11.5875 20.626 10.3671 21.008 9.49551 21.72C8.58891 22.4666 8.11822 23.5432 8.11822 24.8456C8.11822 27.2071 9.56519 28.2143 11.9186 29.0651C13.4353 29.6034 13.9409 29.9855 13.9409 30.5758C13.9409 31.1488 13.4527 31.4787 12.5636 31.4787C11.4653 31.4787 9.6524 30.9405 8.46692 30.2459L7.94394 33.493C8.955 34.066 10.8378 34.6564 12.7903 34.6564C14.3418 34.6564 15.6318 34.2917 16.5035 33.5972C17.4797 32.8331 17.9853 31.7045 17.9853 30.2459C17.9853 27.8322 16.5035 26.8251 14.1152 25.9743ZM26.4991 24.0815L27.0221 20.8865H24.2611V17.0079L20.5489 17.6164L20.0129 20.8865L18.7072 21.0975L18.2185 24.0815H20.0075V30.3501C20.0075 31.9823 20.4259 33.111 21.2801 33.8056C21.9949 34.3786 23.0233 34.6564 24.4703 34.6564C25.5859 34.6564 26.2658 34.4655 26.7365 34.3438V30.9578C26.475 31.0273 25.8824 31.1488 25.4813 31.1488C24.6272 31.1488 24.2611 30.7148 24.2611 29.725V24.0815H26.4991ZM34.7905 20.6999C33.5702 20.6999 32.594 21.338 32.2105 22.4841L31.949 20.8865H28.1661V34.3959H32.4894V25.627C33.0299 24.9671 33.7968 24.7285 34.8428 24.7285C35.0695 24.7285 35.3135 24.7285 35.6099 24.7806V20.8041C35.3135 20.7347 35.052 20.6999 34.7905 20.6999ZM38.835 19.5494C40.0902 19.5494 41.1012 18.525 41.1012 17.2748C41.1012 16.0071 40.0902 15 38.835 15C37.5623 15 36.5513 16.0071 36.5513 17.2748C36.5513 18.525 37.5623 19.5494 38.835 19.5494ZM36.6559 20.8865H40.9966V34.3959H36.6559V20.8865ZM53.2977 22.102C52.5306 21.1122 51.4672 20.626 50.1074 20.626C48.8523 20.626 47.754 21.147 46.7254 22.2409L46.4988 20.8865H42.6984V39.3968L47.0218 38.685V34.3438C47.6842 34.5522 48.3641 34.6564 48.9743 34.6564C50.0551 34.6564 51.6241 34.3786 52.8444 33.0589C54.0123 31.7913 54.6051 29.8292 54.6051 27.2418C54.6051 24.9498 54.1692 23.2134 53.2977 22.102ZM49.7064 30.4368C49.3577 31.0967 48.8174 31.4441 48.1898 31.4441C47.754 31.4441 47.3704 31.3572 47.0218 31.1836V24.7587C47.754 23.9948 48.4164 23.9079 48.6605 23.9079C49.7587 23.9079 50.2991 25.0887 50.2991 27.3981C50.2991 28.7178 50.1074 29.7423 49.7064 30.4368ZM66.9999 27.5196C66.9999 25.3665 66.5292 23.6648 65.6052 22.4666C64.6638 21.2512 63.2518 20.626 61.4562 20.626C57.7778 20.626 55.4942 23.3349 55.4942 27.6759C55.4942 30.107 56.1043 31.9302 57.3071 33.0936C58.388 34.1354 59.9396 34.6564 61.9443 34.6564C63.7921 34.6564 65.5006 34.2223 66.5815 33.5103L66.1108 30.5585C65.0473 31.1315 63.8097 31.4441 62.415 31.4441C61.5782 31.4441 61.0029 31.2703 60.5845 30.9057C60.1312 30.5237 59.8698 29.8986 59.7827 29.013H66.9476C66.965 28.8046 66.9999 27.8322 66.9999 27.5196ZM59.7478 26.3736C59.8698 24.4461 60.3927 23.5432 61.3864 23.5432C62.3627 23.5432 62.8683 24.4636 62.938 26.3736H59.7478Z" fill="#6772E5"/>
</g>
</g>
</g>
</g>
</svg>
