<svg width="32" height="32" viewBox="0 0 32 32" fill="none" xmlns="http://www.w3.org/2000/svg">
<g id="icons8-telegram 1">
<path id="Vector" d="M16 1.28003C7.87797 1.28003 1.28003 7.87798 1.28003 16C1.28003 24.1221 7.87797 30.72 16 30.72C24.1221 30.72 30.72 24.1221 30.72 16C30.72 7.87798 24.1221 1.28003 16 1.28003ZM16 2.56003C23.4303 2.56003 29.44 8.56974 29.44 16C29.44 23.4303 23.4303 29.44 16 29.44C8.56974 29.44 2.56003 23.4303 2.56003 16C2.56003 8.56974 8.56974 2.56003 16 2.56003ZM21.8163 8.98253C21.3785 8.98253 20.8866 9.08392 20.3113 9.29128C19.4178 9.6132 8.9093 14.075 7.71378 14.5825C7.03026 14.8731 5.75753 15.4136 5.75753 16.7025C5.75753 17.5569 6.25818 18.168 7.24378 18.52C7.7737 18.7088 9.03229 19.0903 9.76253 19.2913C10.0723 19.3764 10.4015 19.42 10.74 19.42C11.4024 19.42 12.069 19.255 12.5913 18.9638C12.5868 19.0713 12.5897 19.18 12.6025 19.2888C12.6812 19.9608 13.0956 20.5928 13.71 20.98C14.1119 21.2335 17.3948 23.4331 17.885 23.7825C18.5737 24.2747 19.3349 24.535 20.085 24.535C21.5186 24.535 21.9996 23.0548 22.2313 22.3438C22.5673 21.3115 23.8254 12.9166 23.9675 11.4363C24.0642 10.4219 23.6414 9.58656 22.8363 9.20128C22.5348 9.056 22.1907 8.98253 21.8163 8.98253ZM21.8163 10.2625C21.9923 10.2625 22.1494 10.2916 22.2825 10.3563C22.5852 10.5016 22.7392 10.8254 22.6925 11.315C22.5376 12.9297 21.2825 21.1258 21.015 21.9475C20.7859 22.6502 20.5445 23.255 20.085 23.255C19.6255 23.255 19.1235 23.0939 18.6288 22.74C18.1341 22.3867 14.8488 20.1836 14.3925 19.8963C13.9925 19.6441 13.5692 19.0155 14.165 18.4075C14.6559 17.907 18.3794 14.2931 18.6975 13.975C18.9343 13.7376 18.8236 13.4513 18.5913 13.4513C18.5113 13.4513 18.4155 13.485 18.3163 13.5663C17.9272 13.8844 12.5023 17.5144 12.0325 17.8063C11.7215 17.9996 11.2399 18.1388 10.74 18.1388C10.5269 18.1388 10.3111 18.1132 10.1038 18.0563C9.38186 17.8572 8.16015 17.4866 7.67503 17.3138C7.20847 17.1474 7.03878 16.988 7.03878 16.7025C7.03878 16.2968 7.61151 16.0167 8.21503 15.76C8.85247 15.4893 19.8823 10.8054 20.745 10.495C21.1444 10.3504 21.5097 10.2625 21.8163 10.2625Z" fill="#858584"/>
</g>
</svg>
