<svg width="20" height="21" viewBox="0 0 20 21" fill="none" xmlns="http://www.w3.org/2000/svg">
<g id="User">
<path id="Vector (Stroke)" fill-rule="evenodd" clip-rule="evenodd" d="M10 3.625C7.58375 3.625 5.625 5.58375 5.625 8C5.625 10.4162 7.58375 12.375 10 12.375C12.4162 12.375 14.375 10.4162 14.375 8C14.375 5.58375 12.4162 3.625 10 3.625ZM4.375 8C4.375 4.8934 6.8934 2.375 10 2.375C13.1066 2.375 15.625 4.8934 15.625 8C15.625 11.1066 13.1066 13.625 10 13.625C6.8934 13.625 4.375 11.1066 4.375 8Z" fill="white"/>
<path id="Vector (Stroke)_2" fill-rule="evenodd" clip-rule="evenodd" d="M9.99998 13.6244C8.57362 13.6244 7.17239 13.9999 5.93716 14.7131C4.70193 15.4264 3.67622 16.4522 2.96315 17.6875C2.79059 17.9865 2.40836 18.0889 2.10941 17.9164C1.81046 17.7438 1.708 17.3616 1.88056 17.0626C2.70333 15.6373 3.88684 14.4536 5.31211 13.6306C6.73738 12.8077 8.35418 12.3744 9.99998 12.3744C11.6458 12.3744 13.2626 12.8077 14.6879 13.6306C16.1131 14.4536 17.2966 15.6373 18.1194 17.0626C18.292 17.3616 18.1895 17.7438 17.8906 17.9164C17.5916 18.0889 17.2094 17.9865 17.0368 17.6875C16.3237 16.4522 15.298 15.4264 14.0628 14.7131C12.8276 13.9999 11.4263 13.6244 9.99998 13.6244Z" fill="white"/>
</g>
</svg>
