<svg width="40" height="13" viewBox="0 0 40 13" fill="none" xmlns="http://www.w3.org/2000/svg">
<path id="Vector" d="M26.0537 0C23.2136 0 20.6755 1.47675 20.6755 4.20455C20.6755 7.33316 25.1768 7.54923 25.1768 9.12117C25.1768 9.78303 24.4208 10.3754 23.1291 10.3754C21.2965 10.3754 19.9267 9.54768 19.9267 9.54768L19.3405 12.3008C19.3405 12.3008 20.9185 13 23.0134 13C26.1185 13 28.5622 11.451 28.5622 8.67617C28.5622 5.37005 24.042 5.1604 24.042 3.70172C24.042 3.18323 24.6627 2.61534 25.9503 2.61534C27.4034 2.61534 28.5886 3.21737 28.5886 3.21737L29.1624 0.558652C29.1624 0.558652 27.8723 0 26.0533 0H26.0537ZM0.0688689 0.200809L0 0.602027C0 0.602027 1.19479 0.821311 2.27107 1.25908C3.65686 1.7607 3.75536 2.05308 3.98879 2.95993L6.53173 12.7928H9.94074L15.1924 0.200809H11.7914L8.41682 8.76212L7.03984 1.50487C6.91371 0.674318 6.27387 0.200408 5.49109 0.200408H0.0692693L0.0688689 0.200809ZM16.5602 0.200809L13.8923 12.7928H17.1355L19.7938 0.200809H16.5602ZM34.6486 0.200809C33.8667 0.200809 33.4523 0.620903 33.1483 1.35466L28.3968 12.7928H31.7978L32.4557 10.8863H36.599L36.999 12.7928H40L37.3822 0.200809H34.6486ZM35.0911 3.60292L36.0993 8.32797H33.3986L35.0915 3.60292H35.0911Z" fill="#1434CB"/>
</svg>
