<svg width="33" height="33" viewBox="0 0 33 33" fill="none" xmlns="http://www.w3.org/2000/svg">
<g id="btc 1" clip-path="url(#clip0_161_6427)">
<g id="Layer_x0020_1">
<g id="_1421344023328">
<path id="Vector" d="M32.5062 20.4916C30.3022 29.3309 21.3484 34.7104 12.507 32.5061C3.66926 30.3024 -1.71081 21.349 0.494099 12.5104C2.69707 3.67004 11.6509 -1.70984 20.4896 0.493858C29.3304 2.69755 34.7101 11.6519 32.5059 20.4917L32.5061 20.4916H32.5062Z" fill="#F7931A"/>
<path id="Vector_2" d="M23.7766 14.1491C24.105 11.9534 22.4331 10.773 20.1469 9.98565L20.8886 7.01126L19.0778 6.5601L18.3558 9.45618C17.8797 9.33746 17.3908 9.2256 16.905 9.1147L17.6322 6.19951L15.8225 5.74835L15.0804 8.72177C14.6865 8.63209 14.2996 8.54346 13.9242 8.45006L13.9263 8.44071L11.4291 7.8172L10.9474 9.75104C10.9474 9.75104 12.2909 10.059 12.2626 10.0779C12.9959 10.2609 13.1285 10.7463 13.1065 11.131L12.2616 14.5195C12.3121 14.5323 12.3776 14.5509 12.4499 14.5799C12.3895 14.5649 12.3252 14.5485 12.2585 14.5326L11.0743 19.2794C10.9847 19.5022 10.7572 19.8365 10.2446 19.7095C10.2627 19.7358 8.92845 19.3811 8.92845 19.3811L8.02942 21.4537L10.3859 22.041C10.8243 22.151 11.2539 22.266 11.6769 22.3741L10.9276 25.3826L12.7363 25.8338L13.4784 22.8572C13.9725 22.9913 14.452 23.1151 14.9215 23.2317L14.1819 26.1942L15.9928 26.6454L16.742 23.6425C19.8298 24.2268 22.1516 23.9912 23.1289 21.1986C23.9164 18.9503 23.0897 17.6534 21.4652 16.8077C22.6484 16.5349 23.5396 15.7568 23.7772 14.1494L23.7767 14.149L23.7766 14.1491ZM19.6393 19.95C19.0797 22.1984 15.2937 20.983 14.0662 20.6782L15.0606 16.6925C16.288 16.9989 20.2242 17.6052 19.6394 19.95H19.6393ZM20.1993 14.1166C19.6888 16.1617 16.5377 15.1227 15.5155 14.8679L16.417 11.2531C17.4392 11.5078 20.7311 11.9834 20.1995 14.1166H20.1993Z" fill="white"/>
</g>
</g>
</g>
<defs>
<clipPath id="clip0_161_6427">
<rect width="33" height="33" fill="white"/>
</clipPath>
</defs>
</svg>
