<svg width="33" height="20" viewBox="0 0 33 20" fill="none" xmlns="http://www.w3.org/2000/svg">
<g id="layer1">
<g id="g10305">
<path id="path2268" d="M33 10.0001C33.0016 15.5216 28.581 19.9985 23.1265 20C17.6719 20.0014 13.2494 15.5267 13.2479 10.0051C13.2479 10.0033 13.2479 10.0019 13.2479 10.0001C13.2465 4.47863 17.6671 0.00146717 23.1213 3.60498e-07C28.576 -0.00146645 32.9985 4.47344 33 9.99498C33 9.99667 33 9.99825 33 10.0001Z" fill="#FF9900"/>
<path id="path1350" d="M9.81245 0.00261362C4.39027 0.0374786 0 4.50302 0 10.0001C0 15.5186 4.42448 19.9974 9.87609 19.9974C12.4347 19.9974 14.7669 19.0104 16.5219 17.3926C16.5219 17.3926 16.5216 17.3924 16.5211 17.3921H16.5232C16.8826 17.0606 17.2178 16.703 17.5258 16.3216H15.5025C15.2323 15.9912 14.9867 15.647 14.7662 15.2918H18.2558C18.468 14.948 18.6602 14.591 18.8307 14.2212H14.19C14.0318 13.878 13.8945 13.527 13.7773 13.1709H19.2439C19.5734 12.1743 19.7522 11.1082 19.7522 9.99996C19.7522 9.2652 19.6735 8.54883 19.5246 7.85909H13.4873C13.5621 7.50412 13.6565 7.15344 13.7691 6.80885H19.2378C19.1155 6.44215 18.9735 6.08481 18.812 5.73842H14.1894C14.3562 5.37781 14.5451 5.02701 14.7561 4.68829H18.2432C18.0111 4.31403 17.7543 3.95647 17.4767 3.61774H15.5325C15.8331 3.25962 16.164 2.92236 16.5232 2.6079C14.7682 0.989892 12.4353 0.00261362 9.87609 0.00261362C9.8548 0.00261362 9.83374 0.00250079 9.81245 0.00261362Z" fill="#CC0000"/>
<path id="use9412" d="M32.0092 15.2264C32.0629 15.2264 32.1152 15.2405 32.1662 15.2683C32.2175 15.2961 32.257 15.3361 32.2855 15.3881C32.314 15.4396 32.3283 15.4939 32.3283 15.55C32.3283 15.6056 32.3142 15.6593 32.2861 15.7107C32.2581 15.7621 32.2186 15.8021 32.1678 15.8307C32.1175 15.8587 32.0644 15.873 32.0091 15.873C31.9538 15.873 31.9007 15.8587 31.8501 15.8307C31.7994 15.802 31.7602 15.7622 31.7317 15.7107C31.7036 15.6593 31.6896 15.6056 31.6896 15.55C31.6896 15.4939 31.7038 15.4396 31.7324 15.3881C31.7612 15.3361 31.8009 15.2964 31.8518 15.2683C31.9033 15.2405 31.9556 15.2264 32.0092 15.2264ZM32.0092 15.28C31.9645 15.28 31.9208 15.2918 31.8781 15.3151C31.8358 15.3385 31.8027 15.3715 31.7788 15.4153C31.7546 15.4584 31.7426 15.5031 31.7426 15.55C31.7426 15.5965 31.7544 15.6414 31.7777 15.6841C31.8015 15.7266 31.8345 15.76 31.8767 15.7839C31.9191 15.8077 31.9632 15.8195 32.0091 15.8195C32.0552 15.8195 32.0994 15.8077 32.1416 15.7839C32.1837 15.76 32.2166 15.7266 32.2401 15.6841C32.2634 15.6414 32.275 15.5966 32.275 15.55C32.275 15.5031 32.2632 15.4583 32.2393 15.4153C32.2155 15.3715 32.1823 15.3385 32.1396 15.3151C32.0974 15.2917 32.0539 15.28 32.0092 15.28ZM31.8692 15.7285V15.3808H31.9876C32.0277 15.3808 32.0569 15.384 32.075 15.3907C32.093 15.3972 32.1074 15.4081 32.1182 15.4242C32.1288 15.4401 32.1343 15.4571 32.1343 15.4751C32.1343 15.5006 32.1253 15.5227 32.1073 15.5415C32.0897 15.5602 32.0657 15.5709 32.0361 15.5732C32.0482 15.5782 32.0579 15.5847 32.0655 15.5917C32.0794 15.6052 32.0961 15.6281 32.1162 15.6605L32.158 15.7285H32.0905L32.0601 15.6738C32.0362 15.6307 32.0169 15.6039 32.0021 15.5928C31.9919 15.585 31.9771 15.581 31.9578 15.581H31.9252V15.7289H31.8694M31.9247 15.5328H31.992C32.0241 15.5328 32.0459 15.5278 32.0576 15.5182C32.0694 15.5083 32.0753 15.4957 32.0753 15.4796C32.0753 15.4693 32.0726 15.46 32.0669 15.4521C32.0611 15.4439 32.0533 15.438 32.0432 15.4338C32.0333 15.4299 32.0148 15.4276 31.9878 15.4276H31.9249V15.5328" fill="#FCB340"/>
</g>
<g id="g16480">
<g id="g13802">
<path id="path13804" d="M13.1534 12.8683L13.2849 11.9634C13.2131 11.9634 13.1074 11.9948 13.014 11.9948C12.6479 11.9948 12.6022 11.7968 12.631 11.6522L12.9917 9.8322H13.5481L13.6628 8.80509H13.1384L13.2452 8.18271H12.1481C12.125 8.20618 11.5275 11.683 11.5275 12.1065C11.5275 12.7333 11.8751 13.0122 12.3653 13.0078C12.7489 13.0046 13.048 12.897 13.1534 12.8683Z" fill="#000066"/>
<path id="path13806" d="M13.4863 11.1433C13.4863 12.6475 14.4671 13.0049 15.3028 13.0049C16.0743 13.0049 16.4787 12.8239 16.4787 12.8239L16.664 11.7971C16.664 11.7971 16.0122 12.0654 15.4824 12.0654C14.3532 12.0654 14.5511 11.2131 14.5511 11.2131L16.7205 11.2198C16.7205 11.2198 16.8586 10.5303 16.8586 10.2492C16.8586 9.54772 16.4811 8.68658 15.3266 8.68658C14.2692 8.68681 13.4863 9.84006 13.4863 11.1433ZM15.3306 9.63979C15.924 9.63979 15.8145 10.315 15.8145 10.3697H14.6471C14.6471 10.2997 14.7573 9.63979 15.3306 9.63979Z" fill="#000066"/>
<path id="path13808" d="M21.9891 12.8679L22.1774 11.7076C22.1774 11.7076 21.6611 11.9694 21.3072 11.9694C20.5612 11.9694 20.2619 11.3929 20.2619 10.7733C20.2619 9.5167 20.9037 8.82527 21.6182 8.82527C22.1541 8.82527 22.584 9.1298 22.584 9.1298L22.7556 8.00227C22.7556 8.00227 22.248 7.63117 21.7016 7.62903C20.0581 7.62248 19.1177 8.78081 19.1177 10.7832C19.1177 12.1105 19.8142 13.0137 21.069 13.0137C21.4238 13.0137 21.9891 12.8679 21.9891 12.8679Z" fill="#000066"/>
<path id="path13810" d="M7.36974 8.70319C6.64869 8.70319 6.09606 8.93776 6.09606 8.93776L5.94336 9.85475C5.94336 9.85475 6.39958 9.66711 7.0893 9.66711C7.48087 9.66711 7.76733 9.71168 7.76733 10.0338C7.76733 10.2295 7.73233 10.3017 7.73233 10.3017C7.73233 10.3017 7.42335 10.2756 7.28024 10.2756C6.25367 10.2756 5.41559 10.6685 5.41559 11.853C5.41559 12.7865 6.04234 13.0005 6.43078 13.0005C7.17279 13.0005 7.46649 12.5263 7.48343 12.5249L7.47485 12.9185H8.40076L8.81384 9.9871C8.81384 8.74313 7.74202 8.70319 7.36974 8.70319ZM7.53002 11.0835C7.5502 11.2624 7.48432 12.1087 6.851 12.1087C6.52441 12.1087 6.43959 11.8559 6.43959 11.7068C6.43959 11.4152 6.59597 11.0655 7.3664 11.0655C7.54585 11.0655 7.49982 11.0786 7.53002 11.0835Z" fill="#000066"/>
<path id="path13812" d="M9.79797 12.9788C10.0348 12.9788 11.3888 13.0399 11.3888 11.6255C11.3888 10.303 10.1355 10.5644 10.1355 10.033C10.1355 9.76876 10.3398 9.68549 10.7133 9.68549C10.8614 9.68549 11.4319 9.73321 11.4319 9.73321L11.5644 8.79333C11.5644 8.79333 11.1953 8.70972 10.5943 8.70972C9.81636 8.70972 9.02676 9.02407 9.02676 10.0996C9.02676 11.3184 10.3434 11.196 10.3434 11.7093C10.3434 12.052 9.97553 12.0802 9.69197 12.0802C9.20142 12.0802 8.75981 11.9097 8.75825 11.918L8.61792 12.8483C8.64344 12.8562 8.91597 12.9788 9.79797 12.9788Z" fill="#000066"/>
<path id="path13814" d="M30.6627 7.85052L30.4727 9.2845C30.4727 9.2845 30.0767 8.73106 29.4571 8.73106C28.2913 8.73106 27.6905 9.90711 27.6905 11.258C27.6905 12.1302 28.119 12.9852 28.9945 12.9852C29.6244 12.9852 29.9736 12.5405 29.9736 12.5405L29.9273 12.9202H30.9503L31.7536 7.85831L30.6627 7.85052ZM30.2111 10.6376C30.2111 11.1998 29.936 11.9509 29.3661 11.9509C28.9876 11.9509 28.8101 11.6293 28.8101 11.1246C28.8101 10.2992 29.1763 9.75479 29.6385 9.75479C30.0168 9.75479 30.2111 10.0177 30.2111 10.6376Z" fill="#000066"/>
<path id="path13816" d="M1.67618 12.9243L2.3163 9.10272L2.41038 12.9243H3.13477L4.48625 9.10272L3.88758 12.9243H4.96408L5.79303 7.8557L4.08298 7.8425L3.06577 10.9458L3.03791 7.8557H1.47075L0.629883 12.9243H1.67618Z" fill="#000066"/>
<path id="path13818" d="M17.8774 12.9316C18.1835 11.1697 18.2925 9.77825 19.1851 10.0664C19.3132 9.38447 19.6188 8.79142 19.7583 8.5028C19.7583 8.5028 19.7142 8.43634 19.4383 8.43634C18.9674 8.43634 18.3386 9.40376 18.3386 9.40376L18.4326 8.80564H17.4533L16.7974 12.9314L17.8774 12.9316Z" fill="#000066"/>
<g id="use14699">
<path id="path13810_1_" d="M24.1916 8.70319C23.4702 8.70319 22.9176 8.93776 22.9176 8.93776L22.765 9.85475C22.765 9.85475 23.2215 9.66711 23.9109 9.66711C24.3025 9.66711 24.5889 9.71168 24.5889 10.0338C24.5889 10.2295 24.554 10.3017 24.554 10.3017C24.554 10.3017 24.2451 10.2756 24.102 10.2756C23.0753 10.2756 22.2374 10.6685 22.2374 11.853C22.2374 12.7865 22.864 13.0005 23.2524 13.0005C23.9942 13.0005 24.2882 12.5263 24.305 12.5249L24.2963 12.9185H25.2224L25.6354 9.9871C25.6355 8.74313 24.5637 8.70319 24.1916 8.70319ZM24.3517 11.0835C24.3718 11.2624 24.3059 12.1087 23.6727 12.1087C23.3459 12.1087 23.2611 11.8559 23.2611 11.7068C23.2611 11.4152 23.4174 11.0655 24.188 11.0655C24.3675 11.0655 24.3216 11.0786 24.3517 11.0835Z" fill="#000066"/>
</g>
<path id="use14701" d="M26.7013 12.9315C26.8694 11.6353 27.1804 9.81558 28.0088 10.0664C28.1369 9.38445 28.0134 9.38626 27.7376 9.38626C27.2664 9.38626 27.1621 9.40363 27.1621 9.40363L27.2561 8.80551H26.2769L25.6211 12.9314L26.7013 12.9315Z" fill="#000066"/>
</g>
<g id="g10289">
<path id="path4157" d="M13.4275 12.5455L13.5591 11.6407C13.4873 11.6407 13.3815 11.6718 13.2882 11.6718C12.9221 11.6718 12.8818 11.4748 12.9051 11.3291L13.2008 9.48297H13.7571L13.8914 8.48215H13.3669L13.4737 7.85977H12.4221C12.3989 7.88324 11.8014 11.3602 11.8014 11.7835C11.8014 12.4103 12.149 12.6894 12.6393 12.6849C13.0231 12.6816 13.3221 12.5741 13.4275 12.5455Z" fill="white"/>
<path id="path4155" d="M13.7607 10.8204C13.7607 12.3246 14.7415 12.6821 15.5772 12.6821C16.3485 12.6821 16.6879 12.5075 16.6879 12.5075L16.8731 11.4809C16.8731 11.4809 16.2864 11.7425 15.7565 11.7425C14.6274 11.7425 14.8251 10.8903 14.8251 10.8903H16.9621C16.9621 10.8903 17.1001 10.2006 17.1001 9.91951C17.1001 9.21814 16.7552 8.36356 15.6007 8.36356C14.5434 8.36378 13.7607 9.51703 13.7607 10.8204ZM15.6047 9.31687C16.1981 9.31687 16.0887 9.99194 16.0887 10.0466H14.9212C14.9212 9.97682 15.0316 9.31687 15.6047 9.31687Z" fill="white"/>
<path id="path4151" d="M22.2635 12.545L22.4516 11.3845C22.4516 11.3845 21.9356 11.6464 21.5815 11.6464C20.8356 11.6464 20.5365 11.0698 20.5365 10.4504C20.5365 9.19376 21.1783 8.50244 21.8927 8.50244C22.4285 8.50244 22.8586 8.80698 22.8586 8.80698L23.0302 7.67945C23.0302 7.67945 22.3925 7.41824 21.8459 7.41824C20.632 7.41824 19.451 8.48428 19.451 10.4864C19.451 11.8139 20.0887 12.6908 21.3436 12.6908C21.6983 12.6909 22.2635 12.545 22.2635 12.545Z" fill="white"/>
<path id="path4149" d="M7.64408 8.38013C6.92303 8.38013 6.37029 8.6147 6.37029 8.6147L6.2177 9.53169C6.2177 9.53169 6.67392 9.34405 7.36353 9.34405C7.7551 9.34405 8.04156 9.38862 8.04156 9.71075C8.04156 9.9064 8.00645 9.97861 8.00645 9.97861C8.00645 9.97861 7.69758 9.95244 7.55458 9.95244C6.64516 9.95244 5.68982 10.3453 5.68982 11.5298C5.68982 12.4632 6.31657 12.6773 6.70502 12.6773C7.44691 12.6773 7.76669 12.19 7.78375 12.1885L7.74908 12.5953H8.67499L9.08807 9.66381C9.08807 8.42018 8.01637 8.38013 7.64408 8.38013ZM7.86935 10.767C7.88941 10.946 7.75844 11.7854 7.12534 11.7854C6.79875 11.7854 6.71382 11.5329 6.71382 11.3835C6.71382 11.0922 6.8702 10.7424 7.64074 10.7424C7.81997 10.7426 7.83914 10.762 7.86935 10.767Z" fill="white"/>
<path id="path4145" d="M10.0722 12.6559C10.3091 12.6559 11.6631 12.7168 11.6631 11.3025C11.6631 9.98021 10.4097 10.2414 10.4097 9.71021C10.4097 9.44573 10.614 9.36246 10.9874 9.36246C11.1357 9.36246 11.706 9.41019 11.706 9.41019L11.8387 8.4703C11.8387 8.4703 11.4695 8.38669 10.8685 8.38669C10.0906 8.38669 9.301 8.70104 9.301 9.77655C9.301 10.9952 10.6176 10.8729 10.6176 11.3863C10.6176 11.729 10.2498 11.7569 9.96632 11.7569C9.47578 11.7569 9.03405 11.5865 9.03249 11.5946L8.89227 12.525C8.91769 12.5329 9.1901 12.6559 10.0722 12.6559Z" fill="white"/>
<path id="path4139" d="M30.9736 7.53673L30.7468 8.96145C30.7468 8.96145 30.351 8.40801 29.7314 8.40801C28.7679 8.40801 27.9648 9.58395 27.9648 10.9351C27.9648 11.8073 28.3932 12.6619 29.2688 12.6619C29.8987 12.6619 30.2479 12.2173 30.2479 12.2173L30.2017 12.597H31.2244L32.0277 7.53503L30.9736 7.53673ZM30.4853 10.3146C30.4853 10.8769 30.2104 11.6279 29.6402 11.6279C29.2618 11.6279 29.0845 11.3063 29.0845 10.8016C29.0845 9.97638 29.4506 9.43185 29.9126 9.43185C30.2912 9.43174 30.4853 9.69497 30.4853 10.3146Z" fill="white"/>
<path id="path4133" d="M1.9505 12.6014L2.59063 8.77978L2.68459 12.6014H3.4091L4.76057 8.77978L4.16191 12.6014H5.23841L6.06746 7.53265H4.40278L3.36607 10.6426L3.31212 7.53265H1.77763L0.936646 12.6014H1.9505Z" fill="white"/>
<path id="path4131" d="M18.1517 12.6084C18.4578 10.8464 18.5146 9.4157 19.245 9.67758C19.3728 8.99562 19.4962 8.73182 19.6357 8.4432C19.6357 8.4432 19.5703 8.42932 19.433 8.42932C18.9621 8.42932 18.6132 9.08059 18.6132 9.08059L18.7069 8.48247H17.7279L17.0719 12.6084H18.1517Z" fill="white"/>
<g id="use8523">
<path id="path4149_1_" d="M24.6898 8.38013C23.9688 8.38013 23.416 8.6147 23.416 8.6147L23.2635 9.53169C23.2635 9.53169 23.7198 9.34405 24.4094 9.34405C24.8009 9.34405 25.0872 9.38862 25.0872 9.71075C25.0872 9.9064 25.0523 9.97861 25.0523 9.97861C25.0523 9.97861 24.7434 9.95244 24.6003 9.95244C23.691 9.95244 22.7357 10.3453 22.7357 11.5298C22.7357 12.4632 23.3623 12.6773 23.7507 12.6773C24.4926 12.6773 24.8124 12.19 24.8294 12.1885L24.7949 12.5953C24.7949 12.5953 25.7205 12.5953 25.7208 12.5953L26.1338 9.66381C26.1339 8.42018 25.0621 8.38013 24.6898 8.38013ZM24.9154 10.767C24.9355 10.946 24.8044 11.7854 24.1711 11.7854C23.8445 11.7854 23.7598 11.5329 23.7598 11.3835C23.7598 11.0922 23.9161 10.7424 24.6866 10.7424C24.8658 10.7426 24.8849 10.762 24.9154 10.767Z" fill="white"/>
</g>
<g id="use8525">
<path id="path4131_1_" d="M26.9801 12.6084C27.2862 10.8464 27.343 9.4157 28.0732 9.67758C28.2012 8.99562 28.3247 8.73182 28.4642 8.4432C28.4642 8.4432 28.3988 8.42932 28.2614 8.42932C27.7905 8.42932 27.4416 9.08059 27.4416 9.08059L27.5354 8.48247H26.5563L25.9003 12.6084H26.9801Z" fill="white"/>
</g>
<path id="text9407" d="M32.005 11.9718C32.0584 11.9718 32.111 11.9857 32.1617 12.0139C32.2129 12.0412 32.2527 12.0814 32.2812 12.1334C32.3099 12.1851 32.3239 12.2389 32.3239 12.2952C32.3239 12.3508 32.3099 12.4045 32.2817 12.4559C32.2537 12.5072 32.2144 12.5475 32.1636 12.5758C32.113 12.604 32.06 12.6182 32.0049 12.6182C31.9494 12.6182 31.8964 12.604 31.8456 12.5758C31.795 12.5472 31.7558 12.5072 31.7277 12.4559C31.6992 12.4045 31.6852 12.3508 31.6852 12.2952C31.6852 12.2389 31.6994 12.1851 31.728 12.1334C31.7568 12.0814 31.7967 12.0414 31.8476 12.0139C31.899 11.9857 31.9516 11.9718 32.005 11.9718ZM32.005 12.0251C31.9603 12.0251 31.9166 12.0368 31.8739 12.0604C31.8314 12.0834 31.7983 12.1167 31.7743 12.1602C31.7504 12.2032 31.7384 12.2482 31.7384 12.295C31.7384 12.3417 31.75 12.3863 31.7733 12.429C31.797 12.4715 31.83 12.5049 31.8726 12.529C31.9147 12.5524 31.9588 12.5643 32.005 12.5643C32.051 12.5643 32.0953 12.5524 32.1374 12.529C32.1796 12.5049 32.2126 12.4715 32.236 12.429C32.2595 12.386 32.271 12.3417 32.271 12.295C32.271 12.2482 32.2591 12.2032 32.2352 12.1602C32.2115 12.1167 32.1784 12.0834 32.1355 12.0604C32.0932 12.0369 32.0498 12.0251 32.005 12.0251ZM31.8651 12.4737V12.1258H31.9834C32.0236 12.1258 32.0531 12.1291 32.0709 12.1357C32.089 12.142 32.1031 12.1531 32.1142 12.1693C32.125 12.1853 32.1304 12.2021 32.1304 12.2201C32.1304 12.2455 32.1213 12.2678 32.1032 12.2865C32.0856 12.3052 32.0619 12.3161 32.0322 12.3181C32.044 12.3233 32.0538 12.3295 32.0614 12.3365C32.0751 12.3502 32.0921 12.3733 32.1121 12.4054L32.1542 12.4736H32.0863L32.0561 12.4188C32.032 12.3756 32.0127 12.3488 31.998 12.3378C31.9879 12.3298 31.973 12.3259 31.9535 12.3259H31.9211V12.4738L31.8651 12.4737ZM31.9206 12.2779H31.988C32.0202 12.2779 32.0419 12.2731 32.0535 12.2634C32.0652 12.2539 32.0713 12.2409 32.0713 12.2248C32.0713 12.2145 32.0686 12.2053 32.063 12.1975C32.0573 12.1891 32.0494 12.1831 32.0392 12.179C32.0291 12.175 32.0109 12.173 31.9837 12.173H31.9208V12.2779" fill="white"/>
</g>
</g>
</g>
</svg>
