<svg width="33" height="29" viewBox="0 0 33 29" fill="none" xmlns="http://www.w3.org/2000/svg">
<g id="trc20 1" clip-path="url(#clip0_161_6422)">
<path id="Vector" fill-rule="evenodd" clip-rule="evenodd" d="M6.04237 0.142401L0.0253097 12.9104C0.00241304 12.9579 -0.00484276 13.0115 0.00460337 13.0635C0.0140495 13.1154 0.039702 13.163 0.0778095 13.1991L16.3284 28.9303C16.3746 28.975 16.4361 28.9999 16.5 28.9999C16.564 28.9999 16.6255 28.975 16.6716 28.9303L32.9223 13.2001C32.9604 13.1639 32.986 13.1164 32.9955 13.0644C33.0049 13.0125 32.9977 12.9588 32.9748 12.9114L26.9577 0.143383C26.9383 0.100502 26.907 0.0641774 26.8677 0.0387489C26.8284 0.0133205 26.7827 -0.000135705 26.736 -1.15106e-05H6.26598C6.21908 -0.000600961 6.17301 0.0125311 6.13333 0.0378006C6.09366 0.0630701 6.06206 0.0993975 6.04237 0.142401Z" fill="#50AF95"/>
<path id="Vector_2" fill-rule="evenodd" clip-rule="evenodd" d="M18.5878 14.2216C18.4712 14.2304 17.8684 14.2667 16.5238 14.2667C15.4544 14.2667 14.6951 14.2343 14.4287 14.2216C10.2958 14.0379 7.21094 13.3111 7.21094 12.4409C7.21094 11.5707 10.2958 10.8449 14.4287 10.6583V13.4977C14.699 13.5174 15.4729 13.5635 16.5423 13.5635C17.8256 13.5635 18.4683 13.5095 18.584 13.4987V10.6603C22.7081 10.8459 25.7861 11.5727 25.7861 12.4409C25.7861 13.3091 22.7091 14.0359 18.584 14.2206L18.5878 14.2216ZM18.5878 10.3666V7.82579H24.3434V3.9512H8.67316V7.82579H14.4277V10.3656C9.75038 10.5827 6.23289 11.5187 6.23289 12.6403C6.23289 13.7619 9.75038 14.6969 14.4277 14.915V23.057H18.5869V14.912C23.2535 14.695 26.7652 13.76 26.7652 12.6393C26.7652 11.5187 23.2564 10.5837 18.5869 10.3656L18.5878 10.3666Z" fill="white"/>
</g>
<defs>
<clipPath id="clip0_161_6422">
<rect width="33" height="29" fill="white"/>
</clipPath>
</defs>
</svg>
